<mxfile host="app.diagrams.net" modified="2021-12-23T16:36:58.839Z" agent="5.0 (Windows NT 10.0; Win64; x64) AppleWebKit/537.36 (KHTML, like Gecko) Chrome/96.0.4664.93 Safari/537.36 OPR/82.0.4227.33" etag="oAyW1oEN-qLnVXv1mxMx" version="16.0.3" type="github" pages="4">
  <diagram id="7orB8Zpsbt01PdsIqDaH" name="Casos de uso">
    <mxGraphModel dx="2009" dy="1091" grid="1" gridSize="10" guides="1" tooltips="1" connect="1" arrows="1" fold="1" page="1" pageScale="1" pageWidth="827" pageHeight="1169" math="0" shadow="0">
      <root>
        <mxCell id="0" />
        <mxCell id="1" parent="0" />
        <mxCell id="PImHQFtJjDODGA90XPBp-12" style="edgeStyle=none;rounded=0;orthogonalLoop=1;jettySize=auto;html=1;endArrow=classic;endFill=1;strokeWidth=1;" parent="1" source="PImHQFtJjDODGA90XPBp-1" target="PImHQFtJjDODGA90XPBp-2" edge="1">
          <mxGeometry relative="1" as="geometry" />
        </mxCell>
        <mxCell id="PImHQFtJjDODGA90XPBp-13" style="edgeStyle=none;rounded=0;orthogonalLoop=1;jettySize=auto;html=1;endArrow=classic;endFill=1;strokeWidth=1;" parent="1" source="PImHQFtJjDODGA90XPBp-1" target="PImHQFtJjDODGA90XPBp-3" edge="1">
          <mxGeometry relative="1" as="geometry" />
        </mxCell>
        <mxCell id="PImHQFtJjDODGA90XPBp-14" style="edgeStyle=none;rounded=0;orthogonalLoop=1;jettySize=auto;html=1;endArrow=classic;endFill=1;strokeWidth=1;" parent="1" source="PImHQFtJjDODGA90XPBp-1" target="PImHQFtJjDODGA90XPBp-6" edge="1">
          <mxGeometry relative="1" as="geometry" />
        </mxCell>
        <mxCell id="PImHQFtJjDODGA90XPBp-15" style="edgeStyle=none;rounded=0;orthogonalLoop=1;jettySize=auto;html=1;endArrow=classic;endFill=1;strokeWidth=1;" parent="1" source="PImHQFtJjDODGA90XPBp-1" target="PImHQFtJjDODGA90XPBp-5" edge="1">
          <mxGeometry relative="1" as="geometry" />
        </mxCell>
        <mxCell id="PImHQFtJjDODGA90XPBp-17" style="edgeStyle=none;rounded=0;orthogonalLoop=1;jettySize=auto;html=1;endArrow=classic;endFill=1;strokeWidth=1;" parent="1" source="PImHQFtJjDODGA90XPBp-1" target="PImHQFtJjDODGA90XPBp-16" edge="1">
          <mxGeometry relative="1" as="geometry" />
        </mxCell>
        <mxCell id="PImHQFtJjDODGA90XPBp-1" value="Anonimo" style="shape=umlActor;verticalLabelPosition=bottom;verticalAlign=top;html=1;outlineConnect=0;" parent="1" vertex="1">
          <mxGeometry x="260" y="190" width="30" height="60" as="geometry" />
        </mxCell>
        <mxCell id="PImHQFtJjDODGA90XPBp-2" value="Login" style="ellipse;whiteSpace=wrap;html=1;" parent="1" vertex="1">
          <mxGeometry x="379" y="20" width="70" height="50" as="geometry" />
        </mxCell>
        <mxCell id="PImHQFtJjDODGA90XPBp-3" value="Recuperar cosntraseÃ±a" style="ellipse;whiteSpace=wrap;html=1;" parent="1" vertex="1">
          <mxGeometry x="379" y="90" width="90" height="60" as="geometry" />
        </mxCell>
        <mxCell id="PImHQFtJjDODGA90XPBp-7" style="rounded=0;orthogonalLoop=1;jettySize=auto;html=1;strokeColor=none;" parent="1" source="PImHQFtJjDODGA90XPBp-4" target="PImHQFtJjDODGA90XPBp-5" edge="1">
          <mxGeometry relative="1" as="geometry" />
        </mxCell>
        <mxCell id="PImHQFtJjDODGA90XPBp-4" value="Registro" style="ellipse;whiteSpace=wrap;html=1;" parent="1" vertex="1">
          <mxGeometry x="495" y="110" width="70" height="50" as="geometry" />
        </mxCell>
        <mxCell id="PImHQFtJjDODGA90XPBp-11" style="edgeStyle=none;rounded=0;orthogonalLoop=1;jettySize=auto;html=1;endArrow=block;endFill=0;strokeWidth=1;" parent="1" source="PImHQFtJjDODGA90XPBp-5" target="PImHQFtJjDODGA90XPBp-4" edge="1">
          <mxGeometry relative="1" as="geometry" />
        </mxCell>
        <mxCell id="PImHQFtJjDODGA90XPBp-5" value="Reg. cliente" style="ellipse;whiteSpace=wrap;html=1;" parent="1" vertex="1">
          <mxGeometry x="520" y="290" width="90" height="60" as="geometry" />
        </mxCell>
        <mxCell id="PImHQFtJjDODGA90XPBp-10" style="edgeStyle=none;rounded=0;orthogonalLoop=1;jettySize=auto;html=1;endArrow=block;endFill=0;" parent="1" source="PImHQFtJjDODGA90XPBp-6" target="PImHQFtJjDODGA90XPBp-4" edge="1">
          <mxGeometry relative="1" as="geometry" />
        </mxCell>
        <mxCell id="PImHQFtJjDODGA90XPBp-6" value="Reg. propietario de laboratirio" style="ellipse;whiteSpace=wrap;html=1;" parent="1" vertex="1">
          <mxGeometry x="414" y="210" width="120" height="60" as="geometry" />
        </mxCell>
        <mxCell id="PImHQFtJjDODGA90XPBp-16" value="Ver oferta test (localidad)" style="ellipse;whiteSpace=wrap;html=1;" parent="1" vertex="1">
          <mxGeometry x="479.5" y="380" width="101" height="50" as="geometry" />
        </mxCell>
        <mxCell id="PImHQFtJjDODGA90XPBp-28" style="edgeStyle=none;rounded=0;orthogonalLoop=1;jettySize=auto;html=1;endArrow=classic;endFill=1;strokeWidth=1;" parent="1" source="PImHQFtJjDODGA90XPBp-18" target="PImHQFtJjDODGA90XPBp-22" edge="1">
          <mxGeometry relative="1" as="geometry" />
        </mxCell>
        <mxCell id="PImHQFtJjDODGA90XPBp-29" style="edgeStyle=none;rounded=0;orthogonalLoop=1;jettySize=auto;html=1;endArrow=classic;endFill=1;strokeWidth=1;" parent="1" source="PImHQFtJjDODGA90XPBp-18" target="PImHQFtJjDODGA90XPBp-23" edge="1">
          <mxGeometry relative="1" as="geometry" />
        </mxCell>
        <mxCell id="PImHQFtJjDODGA90XPBp-34" style="edgeStyle=none;rounded=0;orthogonalLoop=1;jettySize=auto;html=1;endArrow=classic;endFill=1;strokeWidth=1;" parent="1" source="PImHQFtJjDODGA90XPBp-18" target="PImHQFtJjDODGA90XPBp-31" edge="1">
          <mxGeometry relative="1" as="geometry" />
        </mxCell>
        <mxCell id="PImHQFtJjDODGA90XPBp-36" style="edgeStyle=none;rounded=0;orthogonalLoop=1;jettySize=auto;html=1;endArrow=classic;endFill=1;strokeWidth=1;" parent="1" source="PImHQFtJjDODGA90XPBp-18" target="PImHQFtJjDODGA90XPBp-35" edge="1">
          <mxGeometry relative="1" as="geometry" />
        </mxCell>
        <mxCell id="PImHQFtJjDODGA90XPBp-18" value="Cliente" style="shape=umlActor;verticalLabelPosition=bottom;verticalAlign=top;html=1;outlineConnect=0;" parent="1" vertex="1">
          <mxGeometry x="260" y="680" width="30" height="60" as="geometry" />
        </mxCell>
        <mxCell id="PImHQFtJjDODGA90XPBp-21" value="Reserva" style="ellipse;whiteSpace=wrap;html=1;" parent="1" vertex="1">
          <mxGeometry x="389.5" y="450" width="90" height="50" as="geometry" />
        </mxCell>
        <mxCell id="PImHQFtJjDODGA90XPBp-22" value="Reserva test " style="ellipse;whiteSpace=wrap;html=1;" parent="1" vertex="1">
          <mxGeometry x="325.5" y="585" width="99" height="60" as="geometry" />
        </mxCell>
        <mxCell id="PImHQFtJjDODGA90XPBp-23" value="Reserva analisis " style="ellipse;whiteSpace=wrap;html=1;" parent="1" vertex="1">
          <mxGeometry x="400" y="645" width="99" height="60" as="geometry" />
        </mxCell>
        <mxCell id="PImHQFtJjDODGA90XPBp-24" style="edgeStyle=none;rounded=0;orthogonalLoop=1;jettySize=auto;html=1;endArrow=block;endFill=0;strokeWidth=1;" parent="1" source="PImHQFtJjDODGA90XPBp-23" target="PImHQFtJjDODGA90XPBp-21" edge="1">
          <mxGeometry relative="1" as="geometry">
            <mxPoint x="569.4184369434856" y="300.2316636985897" as="sourcePoint" />
            <mxPoint x="544.6871263600488" y="169.77481076025742" as="targetPoint" />
            <Array as="points" />
          </mxGeometry>
        </mxCell>
        <mxCell id="PImHQFtJjDODGA90XPBp-25" style="edgeStyle=none;rounded=0;orthogonalLoop=1;jettySize=auto;html=1;endArrow=block;endFill=0;strokeWidth=1;" parent="1" source="PImHQFtJjDODGA90XPBp-22" target="PImHQFtJjDODGA90XPBp-21" edge="1">
          <mxGeometry relative="1" as="geometry">
            <mxPoint x="394.72843694348563" y="620.2316636985897" as="sourcePoint" />
            <mxPoint x="369.99712636004875" y="489.7748107602574" as="targetPoint" />
          </mxGeometry>
        </mxCell>
        <mxCell id="PImHQFtJjDODGA90XPBp-32" value="&amp;lt;&amp;lt;Extends&amp;gt;&amp;gt;" style="edgeStyle=none;rounded=0;orthogonalLoop=1;jettySize=auto;html=1;endArrow=classic;endFill=1;strokeWidth=1;dashed=1;dashPattern=1 4;" parent="1" source="PImHQFtJjDODGA90XPBp-31" target="PImHQFtJjDODGA90XPBp-21" edge="1">
          <mxGeometry relative="1" as="geometry" />
        </mxCell>
        <mxCell id="PImHQFtJjDODGA90XPBp-31" value="Cancelar reserva" style="ellipse;whiteSpace=wrap;html=1;" parent="1" vertex="1">
          <mxGeometry x="510" y="710" width="90" height="50" as="geometry" />
        </mxCell>
        <mxCell id="PImHQFtJjDODGA90XPBp-35" value="Ver historico de test y analisis" style="ellipse;whiteSpace=wrap;html=1;" parent="1" vertex="1">
          <mxGeometry x="485" y="790" width="140" height="60" as="geometry" />
        </mxCell>
        <mxCell id="PImHQFtJjDODGA90XPBp-37" value="Personal laboratorio" style="shape=umlActor;verticalLabelPosition=bottom;verticalAlign=top;html=1;outlineConnect=0;" parent="1" vertex="1">
          <mxGeometry x="207" y="970" width="30" height="60" as="geometry" />
        </mxCell>
        <mxCell id="PImHQFtJjDODGA90XPBp-39" style="edgeStyle=none;rounded=0;orthogonalLoop=1;jettySize=auto;html=1;endArrow=block;endFill=0;strokeWidth=1;" parent="1" source="PImHQFtJjDODGA90XPBp-38" target="PImHQFtJjDODGA90XPBp-37" edge="1">
          <mxGeometry relative="1" as="geometry" />
        </mxCell>
        <mxCell id="PImHQFtJjDODGA90XPBp-59" style="edgeStyle=none;rounded=0;orthogonalLoop=1;jettySize=auto;html=1;endArrow=classic;endFill=1;strokeWidth=1;" parent="1" source="PImHQFtJjDODGA90XPBp-38" target="PImHQFtJjDODGA90XPBp-58" edge="1">
          <mxGeometry relative="1" as="geometry" />
        </mxCell>
        <mxCell id="PImHQFtJjDODGA90XPBp-61" style="edgeStyle=none;rounded=0;orthogonalLoop=1;jettySize=auto;html=1;endArrow=classic;endFill=1;strokeWidth=1;" parent="1" source="PImHQFtJjDODGA90XPBp-38" target="PImHQFtJjDODGA90XPBp-60" edge="1">
          <mxGeometry relative="1" as="geometry" />
        </mxCell>
        <mxCell id="PImHQFtJjDODGA90XPBp-63" style="edgeStyle=none;rounded=0;orthogonalLoop=1;jettySize=auto;html=1;endArrow=classic;endFill=1;strokeWidth=1;" parent="1" source="PImHQFtJjDODGA90XPBp-38" target="PImHQFtJjDODGA90XPBp-62" edge="1">
          <mxGeometry relative="1" as="geometry" />
        </mxCell>
        <mxCell id="PImHQFtJjDODGA90XPBp-65" style="edgeStyle=none;rounded=0;orthogonalLoop=1;jettySize=auto;html=1;endArrow=classic;endFill=1;strokeWidth=1;" parent="1" source="PImHQFtJjDODGA90XPBp-38" target="PImHQFtJjDODGA90XPBp-64" edge="1">
          <mxGeometry relative="1" as="geometry" />
        </mxCell>
        <mxCell id="PImHQFtJjDODGA90XPBp-38" value="Gestor" style="shape=umlActor;verticalLabelPosition=bottom;verticalAlign=top;html=1;outlineConnect=0;" parent="1" vertex="1">
          <mxGeometry x="150" y="1610" width="30" height="60" as="geometry" />
        </mxCell>
        <mxCell id="PImHQFtJjDODGA90XPBp-42" style="edgeStyle=none;rounded=0;orthogonalLoop=1;jettySize=auto;html=1;endArrow=block;endFill=0;strokeWidth=1;" parent="1" source="PImHQFtJjDODGA90XPBp-40" target="PImHQFtJjDODGA90XPBp-37" edge="1">
          <mxGeometry relative="1" as="geometry" />
        </mxCell>
        <mxCell id="PImHQFtJjDODGA90XPBp-46" style="edgeStyle=none;rounded=0;orthogonalLoop=1;jettySize=auto;html=1;endArrow=classic;endFill=1;strokeWidth=1;" parent="1" source="PImHQFtJjDODGA90XPBp-40" target="PImHQFtJjDODGA90XPBp-45" edge="1">
          <mxGeometry relative="1" as="geometry" />
        </mxCell>
        <mxCell id="PImHQFtJjDODGA90XPBp-48" style="edgeStyle=none;rounded=0;orthogonalLoop=1;jettySize=auto;html=1;entryX=0;entryY=0.5;entryDx=0;entryDy=0;endArrow=classic;endFill=1;strokeWidth=1;" parent="1" source="PImHQFtJjDODGA90XPBp-40" target="PImHQFtJjDODGA90XPBp-47" edge="1">
          <mxGeometry relative="1" as="geometry" />
        </mxCell>
        <mxCell id="PImHQFtJjDODGA90XPBp-51" style="edgeStyle=none;rounded=0;orthogonalLoop=1;jettySize=auto;html=1;endArrow=classic;endFill=1;strokeWidth=1;" parent="1" source="PImHQFtJjDODGA90XPBp-40" target="PImHQFtJjDODGA90XPBp-50" edge="1">
          <mxGeometry relative="1" as="geometry" />
        </mxCell>
        <mxCell id="PImHQFtJjDODGA90XPBp-54" style="edgeStyle=none;rounded=0;orthogonalLoop=1;jettySize=auto;html=1;endArrow=classic;endFill=1;strokeWidth=1;" parent="1" source="PImHQFtJjDODGA90XPBp-40" target="PImHQFtJjDODGA90XPBp-53" edge="1">
          <mxGeometry relative="1" as="geometry" />
        </mxCell>
        <mxCell id="PImHQFtJjDODGA90XPBp-57" style="edgeStyle=none;rounded=0;orthogonalLoop=1;jettySize=auto;html=1;endArrow=classic;endFill=1;strokeWidth=1;" parent="1" source="PImHQFtJjDODGA90XPBp-40" target="PImHQFtJjDODGA90XPBp-56" edge="1">
          <mxGeometry relative="1" as="geometry" />
        </mxCell>
        <mxCell id="PImHQFtJjDODGA90XPBp-40" value="Tecnicos" style="shape=umlActor;verticalLabelPosition=bottom;verticalAlign=top;html=1;outlineConnect=0;" parent="1" vertex="1">
          <mxGeometry x="260" y="1100" width="30" height="60" as="geometry" />
        </mxCell>
        <mxCell id="PImHQFtJjDODGA90XPBp-45" value="Ver agenda de test" style="ellipse;whiteSpace=wrap;html=1;" parent="1" vertex="1">
          <mxGeometry x="424.5" y="980" width="120" height="60" as="geometry" />
        </mxCell>
        <mxCell id="PImHQFtJjDODGA90XPBp-49" value="&amp;lt;&amp;lt;includes&amp;gt;&amp;gt;" style="edgeStyle=none;rounded=0;orthogonalLoop=1;jettySize=auto;html=1;endArrow=classic;endFill=1;strokeWidth=1;dashed=1;" parent="1" source="PImHQFtJjDODGA90XPBp-47" target="PImHQFtJjDODGA90XPBp-45" edge="1">
          <mxGeometry relative="1" as="geometry" />
        </mxCell>
        <mxCell id="PImHQFtJjDODGA90XPBp-47" value="Ver detalles de una cita" style="ellipse;whiteSpace=wrap;html=1;" parent="1" vertex="1">
          <mxGeometry x="504" y="1090" width="121" height="60" as="geometry" />
        </mxCell>
        <mxCell id="PImHQFtJjDODGA90XPBp-52" value="&amp;lt;&amp;lt;includes&amp;gt;&amp;gt;" style="edgeStyle=none;rounded=0;orthogonalLoop=1;jettySize=auto;html=1;dashed=1;endArrow=classic;endFill=1;strokeWidth=1;" parent="1" source="PImHQFtJjDODGA90XPBp-50" target="PImHQFtJjDODGA90XPBp-47" edge="1">
          <mxGeometry relative="1" as="geometry" />
        </mxCell>
        <mxCell id="PImHQFtJjDODGA90XPBp-50" value="Seleccionar cita" style="ellipse;whiteSpace=wrap;html=1;" parent="1" vertex="1">
          <mxGeometry x="550" y="1200" width="90" height="50" as="geometry" />
        </mxCell>
        <mxCell id="PImHQFtJjDODGA90XPBp-53" value="Realizar test / analisis" style="ellipse;whiteSpace=wrap;html=1;" parent="1" vertex="1">
          <mxGeometry x="550" y="1320" width="115" height="50" as="geometry" />
        </mxCell>
        <mxCell id="PImHQFtJjDODGA90XPBp-55" value="&amp;lt;&amp;lt;includes&amp;gt;&amp;gt;" style="edgeStyle=none;rounded=0;orthogonalLoop=1;jettySize=auto;html=1;dashed=1;endArrow=classic;endFill=1;strokeWidth=1;" parent="1" source="PImHQFtJjDODGA90XPBp-53" target="PImHQFtJjDODGA90XPBp-50" edge="1">
          <mxGeometry relative="1" as="geometry">
            <mxPoint x="591.623499937677" y="1210.385937305241" as="sourcePoint" />
            <mxPoint x="690" y="1270" as="targetPoint" />
          </mxGeometry>
        </mxCell>
        <mxCell id="PImHQFtJjDODGA90XPBp-56" value="Ver test realizados + resultado" style="ellipse;whiteSpace=wrap;html=1;" parent="1" vertex="1">
          <mxGeometry x="470" y="1370" width="120" height="80" as="geometry" />
        </mxCell>
        <mxCell id="PImHQFtJjDODGA90XPBp-58" value="Gestion laboratorios" style="ellipse;whiteSpace=wrap;html=1;" parent="1" vertex="1">
          <mxGeometry x="329" y="1500" width="120" height="50" as="geometry" />
        </mxCell>
        <mxCell id="PImHQFtJjDODGA90XPBp-60" value="Gestion tipos de analisis" style="ellipse;whiteSpace=wrap;html=1;" parent="1" vertex="1">
          <mxGeometry x="350" y="1590" width="120" height="50" as="geometry" />
        </mxCell>
        <mxCell id="PImHQFtJjDODGA90XPBp-62" value="Gestionar horarios" style="ellipse;whiteSpace=wrap;html=1;" parent="1" vertex="1">
          <mxGeometry x="350" y="1670" width="120" height="40" as="geometry" />
        </mxCell>
        <mxCell id="PImHQFtJjDODGA90XPBp-64" value="Gestionar tecnicos" style="ellipse;whiteSpace=wrap;html=1;" parent="1" vertex="1">
          <mxGeometry x="354" y="1740" width="120" height="40" as="geometry" />
        </mxCell>
        <mxCell id="PImHQFtJjDODGA90XPBp-68" style="edgeStyle=none;rounded=0;orthogonalLoop=1;jettySize=auto;html=1;endArrow=classic;endFill=1;strokeWidth=1;" parent="1" source="PImHQFtJjDODGA90XPBp-66" target="PImHQFtJjDODGA90XPBp-67" edge="1">
          <mxGeometry relative="1" as="geometry" />
        </mxCell>
        <mxCell id="PImHQFtJjDODGA90XPBp-70" style="edgeStyle=none;rounded=0;orthogonalLoop=1;jettySize=auto;html=1;endArrow=classic;endFill=1;strokeWidth=1;" parent="1" source="PImHQFtJjDODGA90XPBp-66" target="PImHQFtJjDODGA90XPBp-69" edge="1">
          <mxGeometry relative="1" as="geometry" />
        </mxCell>
        <mxCell id="PImHQFtJjDODGA90XPBp-73" style="edgeStyle=none;rounded=0;orthogonalLoop=1;jettySize=auto;html=1;endArrow=classic;endFill=1;strokeWidth=1;" parent="1" source="PImHQFtJjDODGA90XPBp-66" target="PImHQFtJjDODGA90XPBp-72" edge="1">
          <mxGeometry relative="1" as="geometry" />
        </mxCell>
        <mxCell id="PImHQFtJjDODGA90XPBp-75" style="edgeStyle=none;rounded=0;orthogonalLoop=1;jettySize=auto;html=1;endArrow=classic;endFill=1;strokeWidth=1;" parent="1" source="PImHQFtJjDODGA90XPBp-66" target="PImHQFtJjDODGA90XPBp-74" edge="1">
          <mxGeometry relative="1" as="geometry" />
        </mxCell>
        <mxCell id="PImHQFtJjDODGA90XPBp-66" value="Admin" style="shape=umlActor;verticalLabelPosition=bottom;verticalAlign=top;html=1;outlineConnect=0;" parent="1" vertex="1">
          <mxGeometry x="150" y="1960" width="30" height="60" as="geometry" />
        </mxCell>
        <mxCell id="PImHQFtJjDODGA90XPBp-67" value="Gestion clientes" style="ellipse;whiteSpace=wrap;html=1;" parent="1" vertex="1">
          <mxGeometry x="349" y="1860" width="120" height="50" as="geometry" />
        </mxCell>
        <mxCell id="PImHQFtJjDODGA90XPBp-69" value="Gestion de laboratorios" style="ellipse;whiteSpace=wrap;html=1;" parent="1" vertex="1">
          <mxGeometry x="354" y="1950" width="120" height="80" as="geometry" />
        </mxCell>
        <mxCell id="PImHQFtJjDODGA90XPBp-72" value="Gestion utilizadores" style="ellipse;whiteSpace=wrap;html=1;" parent="1" vertex="1">
          <mxGeometry x="354" y="2050" width="120" height="80" as="geometry" />
        </mxCell>
        <mxCell id="PImHQFtJjDODGA90XPBp-74" value="Ver estadisticas" style="ellipse;whiteSpace=wrap;html=1;" parent="1" vertex="1">
          <mxGeometry x="360" y="2150" width="120" height="80" as="geometry" />
        </mxCell>
      </root>
    </mxGraphModel>
  </diagram>
  <diagram id="kOE2vnhgd0lgWh2rfACl" name="Relaccional">
    <mxGraphModel dx="2713" dy="836" grid="1" gridSize="10" guides="1" tooltips="1" connect="1" arrows="1" fold="1" page="1" pageScale="1" pageWidth="827" pageHeight="1169" math="0" shadow="0">
      <root>
        <mxCell id="1Y0SCivN_NemcJVu2U0U-0" />
        <mxCell id="1Y0SCivN_NemcJVu2U0U-1" parent="1Y0SCivN_NemcJVu2U0U-0" />
        <mxCell id="3RFa9dpp5Ti8A607uwgJ-14" style="edgeStyle=none;rounded=0;orthogonalLoop=1;jettySize=auto;html=1;endArrow=none;endFill=0;strokeWidth=1;" edge="1" parent="1Y0SCivN_NemcJVu2U0U-1" source="K8RY92rvWetpBAZSgLpn-0" target="3RFa9dpp5Ti8A607uwgJ-13">
          <mxGeometry relative="1" as="geometry" />
        </mxCell>
        <mxCell id="K8RY92rvWetpBAZSgLpn-0" value="Usuario" style="rounded=0;whiteSpace=wrap;html=1;" vertex="1" parent="1Y0SCivN_NemcJVu2U0U-1">
          <mxGeometry x="480" y="270" width="120" height="60" as="geometry" />
        </mxCell>
        <mxCell id="K8RY92rvWetpBAZSgLpn-6" style="edgeStyle=none;rounded=0;orthogonalLoop=1;jettySize=auto;html=1;endArrow=none;endFill=0;strokeWidth=1;startArrow=none;" edge="1" parent="1Y0SCivN_NemcJVu2U0U-1" source="K8RY92rvWetpBAZSgLpn-5" target="K8RY92rvWetpBAZSgLpn-0">
          <mxGeometry relative="1" as="geometry">
            <mxPoint x="540" y="380" as="sourcePoint" />
          </mxGeometry>
        </mxCell>
        <mxCell id="K8RY92rvWetpBAZSgLpn-8" style="edgeStyle=none;rounded=0;orthogonalLoop=1;jettySize=auto;html=1;endArrow=none;endFill=0;strokeWidth=1;" edge="1" parent="1Y0SCivN_NemcJVu2U0U-1" source="K8RY92rvWetpBAZSgLpn-5" target="K8RY92rvWetpBAZSgLpn-7">
          <mxGeometry relative="1" as="geometry" />
        </mxCell>
        <mxCell id="3bJLBbbpnjXPkgA1kPLd-3" style="edgeStyle=none;rounded=0;orthogonalLoop=1;jettySize=auto;html=1;endArrow=none;endFill=0;strokeWidth=1;" edge="1" parent="1Y0SCivN_NemcJVu2U0U-1" source="K8RY92rvWetpBAZSgLpn-5" target="3bJLBbbpnjXPkgA1kPLd-2">
          <mxGeometry relative="1" as="geometry" />
        </mxCell>
        <mxCell id="K8RY92rvWetpBAZSgLpn-5" value="" style="triangle;whiteSpace=wrap;html=1;rotation=90;" vertex="1" parent="1Y0SCivN_NemcJVu2U0U-1">
          <mxGeometry x="510" y="380" width="60" height="80" as="geometry" />
        </mxCell>
        <mxCell id="3RFa9dpp5Ti8A607uwgJ-1" style="edgeStyle=none;rounded=0;orthogonalLoop=1;jettySize=auto;html=1;endArrow=none;endFill=0;strokeWidth=1;" edge="1" parent="1Y0SCivN_NemcJVu2U0U-1" source="K8RY92rvWetpBAZSgLpn-7" target="3RFa9dpp5Ti8A607uwgJ-0">
          <mxGeometry relative="1" as="geometry" />
        </mxCell>
        <mxCell id="3RFa9dpp5Ti8A607uwgJ-18" style="edgeStyle=none;rounded=0;orthogonalLoop=1;jettySize=auto;html=1;endArrow=none;endFill=0;strokeWidth=1;" edge="1" parent="1Y0SCivN_NemcJVu2U0U-1" source="K8RY92rvWetpBAZSgLpn-7" target="3RFa9dpp5Ti8A607uwgJ-17">
          <mxGeometry relative="1" as="geometry" />
        </mxCell>
        <mxCell id="K8RY92rvWetpBAZSgLpn-7" value="Usuario laboriatiorio" style="rounded=0;whiteSpace=wrap;html=1;" vertex="1" parent="1Y0SCivN_NemcJVu2U0U-1">
          <mxGeometry x="280" y="540" width="120" height="60" as="geometry" />
        </mxCell>
        <mxCell id="3RFa9dpp5Ti8A607uwgJ-0" value="" style="triangle;whiteSpace=wrap;html=1;rotation=90;" vertex="1" parent="1Y0SCivN_NemcJVu2U0U-1">
          <mxGeometry x="310" y="660" width="60" height="80" as="geometry" />
        </mxCell>
        <mxCell id="3RFa9dpp5Ti8A607uwgJ-5" style="edgeStyle=none;rounded=0;orthogonalLoop=1;jettySize=auto;html=1;endArrow=none;endFill=0;strokeWidth=1;" edge="1" parent="1Y0SCivN_NemcJVu2U0U-1" source="3RFa9dpp5Ti8A607uwgJ-2" target="3RFa9dpp5Ti8A607uwgJ-0">
          <mxGeometry relative="1" as="geometry" />
        </mxCell>
        <mxCell id="3RFa9dpp5Ti8A607uwgJ-2" value="Tecnico" style="rounded=0;whiteSpace=wrap;html=1;" vertex="1" parent="1Y0SCivN_NemcJVu2U0U-1">
          <mxGeometry x="180" y="800" width="120" height="60" as="geometry" />
        </mxCell>
        <mxCell id="3RFa9dpp5Ti8A607uwgJ-4" style="edgeStyle=none;rounded=0;orthogonalLoop=1;jettySize=auto;html=1;endArrow=none;endFill=0;strokeWidth=1;" edge="1" parent="1Y0SCivN_NemcJVu2U0U-1" source="3RFa9dpp5Ti8A607uwgJ-3" target="3RFa9dpp5Ti8A607uwgJ-0">
          <mxGeometry relative="1" as="geometry" />
        </mxCell>
        <mxCell id="3RFa9dpp5Ti8A607uwgJ-3" value="Gestor" style="rounded=0;whiteSpace=wrap;html=1;" vertex="1" parent="1Y0SCivN_NemcJVu2U0U-1">
          <mxGeometry x="370" y="800" width="120" height="60" as="geometry" />
        </mxCell>
        <mxCell id="3RFa9dpp5Ti8A607uwgJ-7" style="edgeStyle=none;rounded=0;orthogonalLoop=1;jettySize=auto;html=1;endArrow=none;endFill=0;strokeWidth=1;" edge="1" parent="1Y0SCivN_NemcJVu2U0U-1" source="3RFa9dpp5Ti8A607uwgJ-6" target="K8RY92rvWetpBAZSgLpn-5">
          <mxGeometry relative="1" as="geometry" />
        </mxCell>
        <mxCell id="3RFa9dpp5Ti8A607uwgJ-6" value="Admin" style="rounded=0;whiteSpace=wrap;html=1;" vertex="1" parent="1Y0SCivN_NemcJVu2U0U-1">
          <mxGeometry x="570" y="540" width="120" height="60" as="geometry" />
        </mxCell>
        <mxCell id="3RFa9dpp5Ti8A607uwgJ-11" value="" style="edgeStyle=none;rounded=0;orthogonalLoop=1;jettySize=auto;html=1;endArrow=none;endFill=0;strokeWidth=1;" edge="1" parent="1Y0SCivN_NemcJVu2U0U-1" source="K8RY92rvWetpBAZSgLpn-5">
          <mxGeometry relative="1" as="geometry">
            <mxPoint x="540" y="390" as="sourcePoint" />
            <mxPoint x="540" y="390" as="targetPoint" />
          </mxGeometry>
        </mxCell>
        <mxCell id="3RFa9dpp5Ti8A607uwgJ-12" value="Login" style="rounded=0;whiteSpace=wrap;html=1;" vertex="1" parent="1Y0SCivN_NemcJVu2U0U-1">
          <mxGeometry x="180" y="270" width="120" height="60" as="geometry" />
        </mxCell>
        <mxCell id="3RFa9dpp5Ti8A607uwgJ-15" style="edgeStyle=none;rounded=0;orthogonalLoop=1;jettySize=auto;html=1;endArrow=none;endFill=0;strokeWidth=1;" edge="1" parent="1Y0SCivN_NemcJVu2U0U-1" source="3RFa9dpp5Ti8A607uwgJ-13" target="3RFa9dpp5Ti8A607uwgJ-12">
          <mxGeometry relative="1" as="geometry" />
        </mxCell>
        <mxCell id="3RFa9dpp5Ti8A607uwgJ-13" value="" style="rhombus;whiteSpace=wrap;html=1;" vertex="1" parent="1Y0SCivN_NemcJVu2U0U-1">
          <mxGeometry x="380" y="280" width="40" height="40" as="geometry" />
        </mxCell>
        <mxCell id="3RFa9dpp5Ti8A607uwgJ-25" value="1" style="edgeStyle=none;rounded=0;orthogonalLoop=1;jettySize=auto;html=1;endArrow=none;endFill=0;strokeWidth=1;" edge="1" parent="1Y0SCivN_NemcJVu2U0U-1" source="3RFa9dpp5Ti8A607uwgJ-2" target="3RFa9dpp5Ti8A607uwgJ-24">
          <mxGeometry relative="1" as="geometry" />
        </mxCell>
        <mxCell id="EksU0DUshc6TQLs8jwGw-1" value="1" style="edgeStyle=none;rounded=0;orthogonalLoop=1;jettySize=auto;html=1;endArrow=none;endFill=0;strokeWidth=1;" edge="1" parent="1Y0SCivN_NemcJVu2U0U-1" source="3RFa9dpp5Ti8A607uwgJ-16" target="EksU0DUshc6TQLs8jwGw-0">
          <mxGeometry relative="1" as="geometry" />
        </mxCell>
        <mxCell id="3RFa9dpp5Ti8A607uwgJ-16" value="Laboratorio" style="rounded=0;whiteSpace=wrap;html=1;" vertex="1" parent="1Y0SCivN_NemcJVu2U0U-1">
          <mxGeometry x="-100" y="540" width="120" height="60" as="geometry" />
        </mxCell>
        <mxCell id="3RFa9dpp5Ti8A607uwgJ-19" style="edgeStyle=none;rounded=0;orthogonalLoop=1;jettySize=auto;html=1;endArrow=none;endFill=0;strokeWidth=1;" edge="1" parent="1Y0SCivN_NemcJVu2U0U-1" source="3RFa9dpp5Ti8A607uwgJ-17" target="3RFa9dpp5Ti8A607uwgJ-16">
          <mxGeometry relative="1" as="geometry" />
        </mxCell>
        <mxCell id="3RFa9dpp5Ti8A607uwgJ-17" value="Trabaja" style="rhombus;whiteSpace=wrap;html=1;" vertex="1" parent="1Y0SCivN_NemcJVu2U0U-1">
          <mxGeometry x="110" y="530" width="80" height="80" as="geometry" />
        </mxCell>
        <mxCell id="3RFa9dpp5Ti8A607uwgJ-27" value="1.n" style="edgeStyle=none;rounded=0;orthogonalLoop=1;jettySize=auto;html=1;endArrow=none;endFill=0;strokeWidth=1;" edge="1" parent="1Y0SCivN_NemcJVu2U0U-1" source="3RFa9dpp5Ti8A607uwgJ-24" target="3RFa9dpp5Ti8A607uwgJ-26">
          <mxGeometry relative="1" as="geometry" />
        </mxCell>
        <mxCell id="3RFa9dpp5Ti8A607uwgJ-24" value="Analiza" style="rhombus;whiteSpace=wrap;html=1;" vertex="1" parent="1Y0SCivN_NemcJVu2U0U-1">
          <mxGeometry x="-100" y="790" width="80" height="80" as="geometry" />
        </mxCell>
        <mxCell id="3bJLBbbpnjXPkgA1kPLd-16" style="edgeStyle=none;rounded=0;orthogonalLoop=1;jettySize=auto;html=1;endArrow=none;endFill=0;strokeWidth=1;" edge="1" parent="1Y0SCivN_NemcJVu2U0U-1" source="3RFa9dpp5Ti8A607uwgJ-26" target="3bJLBbbpnjXPkgA1kPLd-14">
          <mxGeometry relative="1" as="geometry" />
        </mxCell>
        <mxCell id="3RFa9dpp5Ti8A607uwgJ-26" value="Test/analisis" style="rounded=0;whiteSpace=wrap;html=1;" vertex="1" parent="1Y0SCivN_NemcJVu2U0U-1">
          <mxGeometry x="-395" y="800" width="120" height="60" as="geometry" />
        </mxCell>
        <mxCell id="3bJLBbbpnjXPkgA1kPLd-7" value="1" style="edgeStyle=none;rounded=0;orthogonalLoop=1;jettySize=auto;html=1;endArrow=none;endFill=0;strokeWidth=1;" edge="1" parent="1Y0SCivN_NemcJVu2U0U-1" source="3bJLBbbpnjXPkgA1kPLd-2" target="3bJLBbbpnjXPkgA1kPLd-6">
          <mxGeometry relative="1" as="geometry" />
        </mxCell>
        <mxCell id="3bJLBbbpnjXPkgA1kPLd-2" value="U. Regstrado" style="rounded=0;whiteSpace=wrap;html=1;" vertex="1" parent="1Y0SCivN_NemcJVu2U0U-1">
          <mxGeometry y="390" width="120" height="60" as="geometry" />
        </mxCell>
        <mxCell id="CCiFLWUUPyO1wYxcVlMR-1" value="0.n" style="edgeStyle=none;rounded=0;orthogonalLoop=1;jettySize=auto;html=1;endArrow=none;endFill=0;strokeWidth=1;" edge="1" parent="1Y0SCivN_NemcJVu2U0U-1" source="3bJLBbbpnjXPkgA1kPLd-6" target="CCiFLWUUPyO1wYxcVlMR-0">
          <mxGeometry relative="1" as="geometry" />
        </mxCell>
        <mxCell id="3bJLBbbpnjXPkgA1kPLd-6" value="Solicita" style="rhombus;whiteSpace=wrap;html=1;" vertex="1" parent="1Y0SCivN_NemcJVu2U0U-1">
          <mxGeometry x="-180" y="380" width="80" height="80" as="geometry" />
        </mxCell>
        <mxCell id="3bJLBbbpnjXPkgA1kPLd-13" style="edgeStyle=none;rounded=0;orthogonalLoop=1;jettySize=auto;html=1;endArrow=none;endFill=0;strokeWidth=1;" edge="1" parent="1Y0SCivN_NemcJVu2U0U-1" source="3bJLBbbpnjXPkgA1kPLd-14" target="3bJLBbbpnjXPkgA1kPLd-15">
          <mxGeometry relative="1" as="geometry" />
        </mxCell>
        <mxCell id="3bJLBbbpnjXPkgA1kPLd-14" value="Tiene" style="rhombus;whiteSpace=wrap;html=1;" vertex="1" parent="1Y0SCivN_NemcJVu2U0U-1">
          <mxGeometry x="-530" y="790" width="80" height="80" as="geometry" />
        </mxCell>
        <mxCell id="3bJLBbbpnjXPkgA1kPLd-15" value="Tipo de test/analisis" style="rounded=0;whiteSpace=wrap;html=1;" vertex="1" parent="1Y0SCivN_NemcJVu2U0U-1">
          <mxGeometry x="-700" y="800" width="120" height="60" as="geometry" />
        </mxCell>
        <mxCell id="CCiFLWUUPyO1wYxcVlMR-4" value="1" style="edgeStyle=none;rounded=0;orthogonalLoop=1;jettySize=auto;html=1;endArrow=none;endFill=0;strokeWidth=1;" edge="1" parent="1Y0SCivN_NemcJVu2U0U-1" source="CCiFLWUUPyO1wYxcVlMR-0" target="CCiFLWUUPyO1wYxcVlMR-3">
          <mxGeometry relative="1" as="geometry" />
        </mxCell>
        <mxCell id="CCiFLWUUPyO1wYxcVlMR-0" value="Reserva" style="rounded=0;whiteSpace=wrap;html=1;" vertex="1" parent="1Y0SCivN_NemcJVu2U0U-1">
          <mxGeometry x="-395" y="390" width="120" height="60" as="geometry" />
        </mxCell>
        <mxCell id="CCiFLWUUPyO1wYxcVlMR-5" value="0-1" style="edgeStyle=none;rounded=0;orthogonalLoop=1;jettySize=auto;html=1;endArrow=none;endFill=0;strokeWidth=1;" edge="1" parent="1Y0SCivN_NemcJVu2U0U-1" source="CCiFLWUUPyO1wYxcVlMR-3" target="3RFa9dpp5Ti8A607uwgJ-26">
          <mxGeometry relative="1" as="geometry" />
        </mxCell>
        <mxCell id="CCiFLWUUPyO1wYxcVlMR-3" value="Asigna" style="rhombus;whiteSpace=wrap;html=1;" vertex="1" parent="1Y0SCivN_NemcJVu2U0U-1">
          <mxGeometry x="-385" y="585" width="100" height="50" as="geometry" />
        </mxCell>
        <mxCell id="CCiFLWUUPyO1wYxcVlMR-9" style="edgeStyle=none;rounded=0;orthogonalLoop=1;jettySize=auto;html=1;exitX=1;exitY=1;exitDx=0;exitDy=0;endArrow=none;endFill=0;strokeWidth=1;" edge="1" parent="1Y0SCivN_NemcJVu2U0U-1">
          <mxGeometry relative="1" as="geometry">
            <mxPoint x="-252.5" y="567.5" as="sourcePoint" />
            <mxPoint x="-252.5" y="567.5" as="targetPoint" />
          </mxGeometry>
        </mxCell>
        <mxCell id="CCiFLWUUPyO1wYxcVlMR-10" style="edgeStyle=none;rounded=0;orthogonalLoop=1;jettySize=auto;html=1;exitX=0;exitY=1;exitDx=0;exitDy=0;entryX=0;entryY=0.5;entryDx=0;entryDy=0;endArrow=none;endFill=0;strokeWidth=1;" edge="1" parent="1Y0SCivN_NemcJVu2U0U-1" source="CCiFLWUUPyO1wYxcVlMR-3" target="CCiFLWUUPyO1wYxcVlMR-3">
          <mxGeometry relative="1" as="geometry" />
        </mxCell>
        <mxCell id="CCiFLWUUPyO1wYxcVlMR-15" style="edgeStyle=none;rounded=0;orthogonalLoop=1;jettySize=auto;html=1;endArrow=none;endFill=0;strokeWidth=1;" edge="1" parent="1Y0SCivN_NemcJVu2U0U-1" source="CCiFLWUUPyO1wYxcVlMR-14" target="3RFa9dpp5Ti8A607uwgJ-12">
          <mxGeometry relative="1" as="geometry" />
        </mxCell>
        <mxCell id="CCiFLWUUPyO1wYxcVlMR-14" value="email" style="ellipse;whiteSpace=wrap;html=1;" vertex="1" parent="1Y0SCivN_NemcJVu2U0U-1">
          <mxGeometry x="70" y="160" width="110" height="50" as="geometry" />
        </mxCell>
        <mxCell id="CCiFLWUUPyO1wYxcVlMR-17" style="edgeStyle=none;rounded=0;orthogonalLoop=1;jettySize=auto;html=1;endArrow=none;endFill=0;strokeWidth=1;" edge="1" parent="1Y0SCivN_NemcJVu2U0U-1" source="CCiFLWUUPyO1wYxcVlMR-16" target="3RFa9dpp5Ti8A607uwgJ-12">
          <mxGeometry relative="1" as="geometry" />
        </mxCell>
        <mxCell id="CCiFLWUUPyO1wYxcVlMR-16" value="password" style="ellipse;whiteSpace=wrap;html=1;" vertex="1" parent="1Y0SCivN_NemcJVu2U0U-1">
          <mxGeometry x="180" y="120" width="120" height="40" as="geometry" />
        </mxCell>
        <mxCell id="CCiFLWUUPyO1wYxcVlMR-19" style="edgeStyle=none;rounded=0;orthogonalLoop=1;jettySize=auto;html=1;endArrow=none;endFill=0;strokeWidth=1;" edge="1" parent="1Y0SCivN_NemcJVu2U0U-1" source="CCiFLWUUPyO1wYxcVlMR-18" target="3RFa9dpp5Ti8A607uwgJ-12">
          <mxGeometry relative="1" as="geometry" />
        </mxCell>
        <mxCell id="CCiFLWUUPyO1wYxcVlMR-18" value="creation_date" style="ellipse;whiteSpace=wrap;html=1;" vertex="1" parent="1Y0SCivN_NemcJVu2U0U-1">
          <mxGeometry x="294" y="140" width="120" height="80" as="geometry" />
        </mxCell>
        <mxCell id="EksU0DUshc6TQLs8jwGw-2" value="n" style="edgeStyle=none;rounded=0;orthogonalLoop=1;jettySize=auto;html=1;endArrow=none;endFill=0;strokeWidth=1;" edge="1" parent="1Y0SCivN_NemcJVu2U0U-1" source="EksU0DUshc6TQLs8jwGw-0" target="CCiFLWUUPyO1wYxcVlMR-0">
          <mxGeometry relative="1" as="geometry" />
        </mxCell>
        <mxCell id="EksU0DUshc6TQLs8jwGw-0" value="asigna" style="rhombus;whiteSpace=wrap;html=1;" vertex="1" parent="1Y0SCivN_NemcJVu2U0U-1">
          <mxGeometry x="-230" y="460" width="80" height="80" as="geometry" />
        </mxCell>
      </root>
    </mxGraphModel>
  </diagram>
  <diagram id="KJyzl5IxjV7JwsiVKY5Z" name="UML">
    <mxGraphModel dx="1886" dy="2005" grid="1" gridSize="10" guides="1" tooltips="1" connect="1" arrows="1" fold="1" page="1" pageScale="1" pageWidth="827" pageHeight="1169" math="0" shadow="0">
      <root>
        <mxCell id="sz9JhtiLYMQQ4J9MjUP7-0" />
        <mxCell id="sz9JhtiLYMQQ4J9MjUP7-1" parent="sz9JhtiLYMQQ4J9MjUP7-0" />
        <mxCell id="sz9JhtiLYMQQ4J9MjUP7-2" value="Client" style="swimlane;fontStyle=1;align=center;verticalAlign=top;childLayout=stackLayout;horizontal=1;startSize=26;horizontalStack=0;resizeParent=1;resizeParentMax=0;resizeLast=0;collapsible=1;marginBottom=0;" vertex="1" parent="sz9JhtiLYMQQ4J9MjUP7-1">
          <mxGeometry x="490" y="22" width="160" height="164" as="geometry" />
        </mxCell>
        <mxCell id="sz9JhtiLYMQQ4J9MjUP7-3" value="+ idUser: int" style="text;strokeColor=none;fillColor=none;align=left;verticalAlign=top;spacingLeft=4;spacingRight=4;overflow=hidden;rotatable=0;points=[[0,0.5],[1,0.5]];portConstraint=eastwest;" vertex="1" parent="sz9JhtiLYMQQ4J9MjUP7-2">
          <mxGeometry y="26" width="160" height="26" as="geometry" />
        </mxCell>
        <mxCell id="sz9JhtiLYMQQ4J9MjUP7-6" value="+ name: string" style="text;strokeColor=none;fillColor=none;align=left;verticalAlign=top;spacingLeft=4;spacingRight=4;overflow=hidden;rotatable=0;points=[[0,0.5],[1,0.5]];portConstraint=eastwest;" vertex="1" parent="sz9JhtiLYMQQ4J9MjUP7-2">
          <mxGeometry y="52" width="160" height="26" as="geometry" />
        </mxCell>
        <mxCell id="sz9JhtiLYMQQ4J9MjUP7-7" value="+ email: string" style="text;strokeColor=none;fillColor=none;align=left;verticalAlign=top;spacingLeft=4;spacingRight=4;overflow=hidden;rotatable=0;points=[[0,0.5],[1,0.5]];portConstraint=eastwest;" vertex="1" parent="sz9JhtiLYMQQ4J9MjUP7-2">
          <mxGeometry y="78" width="160" height="26" as="geometry" />
        </mxCell>
        <mxCell id="sz9JhtiLYMQQ4J9MjUP7-8" value="+ phone: string" style="text;strokeColor=none;fillColor=none;align=left;verticalAlign=top;spacingLeft=4;spacingRight=4;overflow=hidden;rotatable=0;points=[[0,0.5],[1,0.5]];portConstraint=eastwest;" vertex="1" parent="sz9JhtiLYMQQ4J9MjUP7-2">
          <mxGeometry y="104" width="160" height="26" as="geometry" />
        </mxCell>
        <mxCell id="sz9JhtiLYMQQ4J9MjUP7-4" value="" style="line;strokeWidth=1;fillColor=none;align=left;verticalAlign=middle;spacingTop=-1;spacingLeft=3;spacingRight=3;rotatable=0;labelPosition=right;points=[];portConstraint=eastwest;" vertex="1" parent="sz9JhtiLYMQQ4J9MjUP7-2">
          <mxGeometry y="130" width="160" height="8" as="geometry" />
        </mxCell>
        <mxCell id="sz9JhtiLYMQQ4J9MjUP7-5" value="+ method(type): type" style="text;strokeColor=none;fillColor=none;align=left;verticalAlign=top;spacingLeft=4;spacingRight=4;overflow=hidden;rotatable=0;points=[[0,0.5],[1,0.5]];portConstraint=eastwest;" vertex="1" parent="sz9JhtiLYMQQ4J9MjUP7-2">
          <mxGeometry y="138" width="160" height="26" as="geometry" />
        </mxCell>
        <mxCell id="FFQynV5mvzdT66_Xhf7p-5" value="*" style="edgeStyle=none;rounded=0;orthogonalLoop=1;jettySize=auto;html=1;endArrow=none;endFill=0;strokeWidth=1;" edge="1" parent="sz9JhtiLYMQQ4J9MjUP7-1" source="sz9JhtiLYMQQ4J9MjUP7-9" target="FFQynV5mvzdT66_Xhf7p-1">
          <mxGeometry x="-0.8349" y="10" relative="1" as="geometry">
            <mxPoint as="offset" />
          </mxGeometry>
        </mxCell>
        <mxCell id="FFQynV5mvzdT66_Xhf7p-6" value="1" style="edgeLabel;html=1;align=center;verticalAlign=middle;resizable=0;points=[];" vertex="1" connectable="0" parent="FFQynV5mvzdT66_Xhf7p-5">
          <mxGeometry x="0.6881" y="1" relative="1" as="geometry">
            <mxPoint x="9" as="offset" />
          </mxGeometry>
        </mxCell>
        <mxCell id="sz9JhtiLYMQQ4J9MjUP7-9" value="Reservation" style="swimlane;fontStyle=1;align=center;verticalAlign=top;childLayout=stackLayout;horizontal=1;startSize=26;horizontalStack=0;resizeParent=1;resizeParentMax=0;resizeLast=0;collapsible=1;marginBottom=0;" vertex="1" parent="sz9JhtiLYMQQ4J9MjUP7-1">
          <mxGeometry x="490" y="263" width="160" height="138" as="geometry" />
        </mxCell>
        <mxCell id="sz9JhtiLYMQQ4J9MjUP7-10" value="+ idReservation: int" style="text;strokeColor=none;fillColor=none;align=left;verticalAlign=top;spacingLeft=4;spacingRight=4;overflow=hidden;rotatable=0;points=[[0,0.5],[1,0.5]];portConstraint=eastwest;" vertex="1" parent="sz9JhtiLYMQQ4J9MjUP7-9">
          <mxGeometry y="26" width="160" height="26" as="geometry" />
        </mxCell>
        <mxCell id="sz9JhtiLYMQQ4J9MjUP7-14" value="+ idUser: FK" style="text;strokeColor=none;fillColor=none;align=left;verticalAlign=top;spacingLeft=4;spacingRight=4;overflow=hidden;rotatable=0;points=[[0,0.5],[1,0.5]];portConstraint=eastwest;" vertex="1" parent="sz9JhtiLYMQQ4J9MjUP7-9">
          <mxGeometry y="52" width="160" height="26" as="geometry" />
        </mxCell>
        <mxCell id="FFQynV5mvzdT66_Xhf7p-0" value="+ testType: FK" style="text;strokeColor=none;fillColor=none;align=left;verticalAlign=top;spacingLeft=4;spacingRight=4;overflow=hidden;rotatable=0;points=[[0,0.5],[1,0.5]];portConstraint=eastwest;" vertex="1" parent="sz9JhtiLYMQQ4J9MjUP7-9">
          <mxGeometry y="78" width="160" height="26" as="geometry" />
        </mxCell>
        <mxCell id="sz9JhtiLYMQQ4J9MjUP7-11" value="" style="line;strokeWidth=1;fillColor=none;align=left;verticalAlign=middle;spacingTop=-1;spacingLeft=3;spacingRight=3;rotatable=0;labelPosition=right;points=[];portConstraint=eastwest;" vertex="1" parent="sz9JhtiLYMQQ4J9MjUP7-9">
          <mxGeometry y="104" width="160" height="8" as="geometry" />
        </mxCell>
        <mxCell id="sz9JhtiLYMQQ4J9MjUP7-12" value="+ method(type): type" style="text;strokeColor=none;fillColor=none;align=left;verticalAlign=top;spacingLeft=4;spacingRight=4;overflow=hidden;rotatable=0;points=[[0,0.5],[1,0.5]];portConstraint=eastwest;" vertex="1" parent="sz9JhtiLYMQQ4J9MjUP7-9">
          <mxGeometry y="112" width="160" height="26" as="geometry" />
        </mxCell>
        <mxCell id="sz9JhtiLYMQQ4J9MjUP7-15" value="name" style="endArrow=none;endFill=0;html=1;align=left;verticalAlign=top;rounded=0;strokeWidth=1;" edge="1" parent="sz9JhtiLYMQQ4J9MjUP7-1" source="sz9JhtiLYMQQ4J9MjUP7-2" target="sz9JhtiLYMQQ4J9MjUP7-9">
          <mxGeometry x="-1" relative="1" as="geometry">
            <mxPoint x="370" y="490" as="sourcePoint" />
            <mxPoint x="530" y="490" as="targetPoint" />
          </mxGeometry>
        </mxCell>
        <mxCell id="sz9JhtiLYMQQ4J9MjUP7-16" value="1" style="edgeLabel;resizable=0;html=1;align=left;verticalAlign=bottom;" connectable="0" vertex="1" parent="sz9JhtiLYMQQ4J9MjUP7-15">
          <mxGeometry x="-1" relative="1" as="geometry" />
        </mxCell>
        <mxCell id="sz9JhtiLYMQQ4J9MjUP7-17" value="*" style="edgeLabel;html=1;align=center;verticalAlign=middle;resizable=0;points=[];" vertex="1" connectable="0" parent="sz9JhtiLYMQQ4J9MjUP7-15">
          <mxGeometry x="0.8353" relative="1" as="geometry">
            <mxPoint x="-6" y="-12" as="offset" />
          </mxGeometry>
        </mxCell>
        <mxCell id="FFQynV5mvzdT66_Xhf7p-1" value="TestType (non necesary)" style="swimlane;fontStyle=1;align=center;verticalAlign=top;childLayout=stackLayout;horizontal=1;startSize=26;horizontalStack=0;resizeParent=1;resizeParentMax=0;resizeLast=0;collapsible=1;marginBottom=0;" vertex="1" parent="sz9JhtiLYMQQ4J9MjUP7-1">
          <mxGeometry x="490" y="510" width="160" height="138" as="geometry" />
        </mxCell>
        <mxCell id="FFQynV5mvzdT66_Xhf7p-2" value="+ idType:int" style="text;strokeColor=none;fillColor=none;align=left;verticalAlign=top;spacingLeft=4;spacingRight=4;overflow=hidden;rotatable=0;points=[[0,0.5],[1,0.5]];portConstraint=eastwest;" vertex="1" parent="FFQynV5mvzdT66_Xhf7p-1">
          <mxGeometry y="26" width="160" height="26" as="geometry" />
        </mxCell>
        <mxCell id="FFQynV5mvzdT66_Xhf7p-8" value="+ description:string" style="text;strokeColor=none;fillColor=none;align=left;verticalAlign=top;spacingLeft=4;spacingRight=4;overflow=hidden;rotatable=0;points=[[0,0.5],[1,0.5]];portConstraint=eastwest;" vertex="1" parent="FFQynV5mvzdT66_Xhf7p-1">
          <mxGeometry y="52" width="160" height="26" as="geometry" />
        </mxCell>
        <mxCell id="FFQynV5mvzdT66_Xhf7p-9" value="+ cost: float" style="text;strokeColor=none;fillColor=none;align=left;verticalAlign=top;spacingLeft=4;spacingRight=4;overflow=hidden;rotatable=0;points=[[0,0.5],[1,0.5]];portConstraint=eastwest;" vertex="1" parent="FFQynV5mvzdT66_Xhf7p-1">
          <mxGeometry y="78" width="160" height="26" as="geometry" />
        </mxCell>
        <mxCell id="FFQynV5mvzdT66_Xhf7p-3" value="" style="line;strokeWidth=1;fillColor=none;align=left;verticalAlign=middle;spacingTop=-1;spacingLeft=3;spacingRight=3;rotatable=0;labelPosition=right;points=[];portConstraint=eastwest;" vertex="1" parent="FFQynV5mvzdT66_Xhf7p-1">
          <mxGeometry y="104" width="160" height="8" as="geometry" />
        </mxCell>
        <mxCell id="FFQynV5mvzdT66_Xhf7p-4" value="+ method(type): type" style="text;strokeColor=none;fillColor=none;align=left;verticalAlign=top;spacingLeft=4;spacingRight=4;overflow=hidden;rotatable=0;points=[[0,0.5],[1,0.5]];portConstraint=eastwest;" vertex="1" parent="FFQynV5mvzdT66_Xhf7p-1">
          <mxGeometry y="112" width="160" height="26" as="geometry" />
        </mxCell>
        <mxCell id="mc5ZjtsT4qFcMWSgi2MN-10" style="edgeStyle=none;rounded=0;orthogonalLoop=1;jettySize=auto;html=1;endArrow=block;endFill=0;strokeWidth=1;" edge="1" parent="sz9JhtiLYMQQ4J9MjUP7-1" source="FFQynV5mvzdT66_Xhf7p-10" target="mc5ZjtsT4qFcMWSgi2MN-3">
          <mxGeometry relative="1" as="geometry" />
        </mxCell>
        <mxCell id="FFQynV5mvzdT66_Xhf7p-10" value="Technician" style="swimlane;fontStyle=1;align=center;verticalAlign=top;childLayout=stackLayout;horizontal=1;startSize=26;horizontalStack=0;resizeParent=1;resizeParentMax=0;resizeLast=0;collapsible=1;marginBottom=0;" vertex="1" parent="sz9JhtiLYMQQ4J9MjUP7-1">
          <mxGeometry x="780" y="285" width="160" height="86" as="geometry" />
        </mxCell>
        <mxCell id="FFQynV5mvzdT66_Xhf7p-11" value="+ field: type" style="text;strokeColor=none;fillColor=none;align=left;verticalAlign=top;spacingLeft=4;spacingRight=4;overflow=hidden;rotatable=0;points=[[0,0.5],[1,0.5]];portConstraint=eastwest;" vertex="1" parent="FFQynV5mvzdT66_Xhf7p-10">
          <mxGeometry y="26" width="160" height="26" as="geometry" />
        </mxCell>
        <mxCell id="FFQynV5mvzdT66_Xhf7p-12" value="" style="line;strokeWidth=1;fillColor=none;align=left;verticalAlign=middle;spacingTop=-1;spacingLeft=3;spacingRight=3;rotatable=0;labelPosition=right;points=[];portConstraint=eastwest;" vertex="1" parent="FFQynV5mvzdT66_Xhf7p-10">
          <mxGeometry y="52" width="160" height="8" as="geometry" />
        </mxCell>
        <mxCell id="FFQynV5mvzdT66_Xhf7p-13" value="+ method(type): type" style="text;strokeColor=none;fillColor=none;align=left;verticalAlign=top;spacingLeft=4;spacingRight=4;overflow=hidden;rotatable=0;points=[[0,0.5],[1,0.5]];portConstraint=eastwest;" vertex="1" parent="FFQynV5mvzdT66_Xhf7p-10">
          <mxGeometry y="60" width="160" height="26" as="geometry" />
        </mxCell>
        <mxCell id="mc5ZjtsT4qFcMWSgi2MN-0" style="edgeStyle=none;rounded=0;orthogonalLoop=1;jettySize=auto;html=1;endArrow=none;endFill=0;strokeWidth=1;" edge="1" parent="sz9JhtiLYMQQ4J9MjUP7-1" source="sz9JhtiLYMQQ4J9MjUP7-14" target="FFQynV5mvzdT66_Xhf7p-10">
          <mxGeometry relative="1" as="geometry" />
        </mxCell>
        <mxCell id="mc5ZjtsT4qFcMWSgi2MN-1" value="*" style="edgeLabel;html=1;align=center;verticalAlign=middle;resizable=0;points=[];" vertex="1" connectable="0" parent="mc5ZjtsT4qFcMWSgi2MN-0">
          <mxGeometry x="-0.6974" y="2" relative="1" as="geometry">
            <mxPoint x="-10" y="-11" as="offset" />
          </mxGeometry>
        </mxCell>
        <mxCell id="mc5ZjtsT4qFcMWSgi2MN-2" value="0" style="edgeLabel;html=1;align=center;verticalAlign=middle;resizable=0;points=[];" vertex="1" connectable="0" parent="mc5ZjtsT4qFcMWSgi2MN-0">
          <mxGeometry x="0.4692" y="-3" relative="1" as="geometry">
            <mxPoint x="24" y="-21" as="offset" />
          </mxGeometry>
        </mxCell>
        <mxCell id="fdmMfQQIDtmYKa4RIqW1-9" style="edgeStyle=none;rounded=0;orthogonalLoop=1;jettySize=auto;html=1;endArrow=block;endFill=0;strokeWidth=1;" edge="1" parent="sz9JhtiLYMQQ4J9MjUP7-1" source="mc5ZjtsT4qFcMWSgi2MN-3" target="fdmMfQQIDtmYKa4RIqW1-1">
          <mxGeometry relative="1" as="geometry" />
        </mxCell>
        <mxCell id="fdmMfQQIDtmYKa4RIqW1-15" value="1" style="edgeStyle=none;rounded=0;orthogonalLoop=1;jettySize=auto;html=1;endArrow=none;endFill=0;strokeWidth=1;" edge="1" parent="sz9JhtiLYMQQ4J9MjUP7-1" source="mc5ZjtsT4qFcMWSgi2MN-3" target="fdmMfQQIDtmYKa4RIqW1-11">
          <mxGeometry x="0.6923" y="3" relative="1" as="geometry">
            <Array as="points">
              <mxPoint x="1150" y="143" />
            </Array>
            <mxPoint as="offset" />
          </mxGeometry>
        </mxCell>
        <mxCell id="fdmMfQQIDtmYKa4RIqW1-16" value="*" style="edgeLabel;html=1;align=center;verticalAlign=middle;resizable=0;points=[];" vertex="1" connectable="0" parent="fdmMfQQIDtmYKa4RIqW1-15">
          <mxGeometry x="-0.8154" relative="1" as="geometry">
            <mxPoint as="offset" />
          </mxGeometry>
        </mxCell>
        <mxCell id="mc5ZjtsT4qFcMWSgi2MN-3" value="&lt;&lt;LabWorker&gt;&gt;" style="swimlane;fontStyle=1;align=center;verticalAlign=top;childLayout=stackLayout;horizontal=1;startSize=26;horizontalStack=0;resizeParent=1;resizeParentMax=0;resizeLast=0;collapsible=1;marginBottom=0;" vertex="1" parent="sz9JhtiLYMQQ4J9MjUP7-1">
          <mxGeometry x="880" y="100" width="160" height="86" as="geometry" />
        </mxCell>
        <mxCell id="mc5ZjtsT4qFcMWSgi2MN-4" value="+ idLab: int" style="text;strokeColor=none;fillColor=none;align=left;verticalAlign=top;spacingLeft=4;spacingRight=4;overflow=hidden;rotatable=0;points=[[0,0.5],[1,0.5]];portConstraint=eastwest;" vertex="1" parent="mc5ZjtsT4qFcMWSgi2MN-3">
          <mxGeometry y="26" width="160" height="26" as="geometry" />
        </mxCell>
        <mxCell id="mc5ZjtsT4qFcMWSgi2MN-5" value="" style="line;strokeWidth=1;fillColor=none;align=left;verticalAlign=middle;spacingTop=-1;spacingLeft=3;spacingRight=3;rotatable=0;labelPosition=right;points=[];portConstraint=eastwest;" vertex="1" parent="mc5ZjtsT4qFcMWSgi2MN-3">
          <mxGeometry y="52" width="160" height="8" as="geometry" />
        </mxCell>
        <mxCell id="mc5ZjtsT4qFcMWSgi2MN-6" value="+ method(type): type" style="text;strokeColor=none;fillColor=none;align=left;verticalAlign=top;spacingLeft=4;spacingRight=4;overflow=hidden;rotatable=0;points=[[0,0.5],[1,0.5]];portConstraint=eastwest;" vertex="1" parent="mc5ZjtsT4qFcMWSgi2MN-3">
          <mxGeometry y="60" width="160" height="26" as="geometry" />
        </mxCell>
        <mxCell id="fdmMfQQIDtmYKa4RIqW1-0" style="edgeStyle=none;rounded=0;orthogonalLoop=1;jettySize=auto;html=1;endArrow=block;endFill=0;strokeWidth=1;" edge="1" parent="sz9JhtiLYMQQ4J9MjUP7-1" source="mc5ZjtsT4qFcMWSgi2MN-11" target="mc5ZjtsT4qFcMWSgi2MN-3">
          <mxGeometry relative="1" as="geometry" />
        </mxCell>
        <mxCell id="mc5ZjtsT4qFcMWSgi2MN-11" value="Manager" style="swimlane;fontStyle=1;align=center;verticalAlign=top;childLayout=stackLayout;horizontal=1;startSize=26;horizontalStack=0;resizeParent=1;resizeParentMax=0;resizeLast=0;collapsible=1;marginBottom=0;" vertex="1" parent="sz9JhtiLYMQQ4J9MjUP7-1">
          <mxGeometry x="1000" y="285" width="160" height="86" as="geometry" />
        </mxCell>
        <mxCell id="mc5ZjtsT4qFcMWSgi2MN-12" value="+ idLab: int" style="text;strokeColor=none;fillColor=none;align=left;verticalAlign=top;spacingLeft=4;spacingRight=4;overflow=hidden;rotatable=0;points=[[0,0.5],[1,0.5]];portConstraint=eastwest;" vertex="1" parent="mc5ZjtsT4qFcMWSgi2MN-11">
          <mxGeometry y="26" width="160" height="26" as="geometry" />
        </mxCell>
        <mxCell id="mc5ZjtsT4qFcMWSgi2MN-13" value="" style="line;strokeWidth=1;fillColor=none;align=left;verticalAlign=middle;spacingTop=-1;spacingLeft=3;spacingRight=3;rotatable=0;labelPosition=right;points=[];portConstraint=eastwest;" vertex="1" parent="mc5ZjtsT4qFcMWSgi2MN-11">
          <mxGeometry y="52" width="160" height="8" as="geometry" />
        </mxCell>
        <mxCell id="mc5ZjtsT4qFcMWSgi2MN-14" value="+ method(type): type" style="text;strokeColor=none;fillColor=none;align=left;verticalAlign=top;spacingLeft=4;spacingRight=4;overflow=hidden;rotatable=0;points=[[0,0.5],[1,0.5]];portConstraint=eastwest;" vertex="1" parent="mc5ZjtsT4qFcMWSgi2MN-11">
          <mxGeometry y="60" width="160" height="26" as="geometry" />
        </mxCell>
        <mxCell id="oCo8V_geaLiSocHJf87K-10" value="*" style="edgeStyle=none;rounded=0;orthogonalLoop=1;jettySize=auto;html=1;endArrow=none;endFill=0;strokeWidth=1;" edge="1" parent="sz9JhtiLYMQQ4J9MjUP7-1" source="fdmMfQQIDtmYKa4RIqW1-1" target="oCo8V_geaLiSocHJf87K-5">
          <mxGeometry x="0.8261" relative="1" as="geometry">
            <mxPoint as="offset" />
          </mxGeometry>
        </mxCell>
        <mxCell id="oCo8V_geaLiSocHJf87K-11" value="1" style="edgeLabel;html=1;align=center;verticalAlign=middle;resizable=0;points=[];" vertex="1" connectable="0" parent="oCo8V_geaLiSocHJf87K-10">
          <mxGeometry x="-0.513" y="1" relative="1" as="geometry">
            <mxPoint x="-36" y="1" as="offset" />
          </mxGeometry>
        </mxCell>
        <mxCell id="fdmMfQQIDtmYKa4RIqW1-1" value="&lt;&lt;User&gt;&gt;" style="swimlane;fontStyle=1;align=center;verticalAlign=top;childLayout=stackLayout;horizontal=1;startSize=26;horizontalStack=0;resizeParent=1;resizeParentMax=0;resizeLast=0;collapsible=1;marginBottom=0;" vertex="1" parent="sz9JhtiLYMQQ4J9MjUP7-1">
          <mxGeometry x="790" y="-200" width="160" height="86" as="geometry" />
        </mxCell>
        <mxCell id="fdmMfQQIDtmYKa4RIqW1-2" value="+ idUser: int" style="text;strokeColor=none;fillColor=none;align=left;verticalAlign=top;spacingLeft=4;spacingRight=4;overflow=hidden;rotatable=0;points=[[0,0.5],[1,0.5]];portConstraint=eastwest;" vertex="1" parent="fdmMfQQIDtmYKa4RIqW1-1">
          <mxGeometry y="26" width="160" height="26" as="geometry" />
        </mxCell>
        <mxCell id="fdmMfQQIDtmYKa4RIqW1-3" value="" style="line;strokeWidth=1;fillColor=none;align=left;verticalAlign=middle;spacingTop=-1;spacingLeft=3;spacingRight=3;rotatable=0;labelPosition=right;points=[];portConstraint=eastwest;" vertex="1" parent="fdmMfQQIDtmYKa4RIqW1-1">
          <mxGeometry y="52" width="160" height="8" as="geometry" />
        </mxCell>
        <mxCell id="fdmMfQQIDtmYKa4RIqW1-4" value="+ method(type): type" style="text;strokeColor=none;fillColor=none;align=left;verticalAlign=top;spacingLeft=4;spacingRight=4;overflow=hidden;rotatable=0;points=[[0,0.5],[1,0.5]];portConstraint=eastwest;" vertex="1" parent="fdmMfQQIDtmYKa4RIqW1-1">
          <mxGeometry y="60" width="160" height="26" as="geometry" />
        </mxCell>
        <mxCell id="fdmMfQQIDtmYKa4RIqW1-10" style="edgeStyle=none;rounded=0;orthogonalLoop=1;jettySize=auto;html=1;endArrow=block;endFill=0;strokeWidth=1;" edge="1" parent="sz9JhtiLYMQQ4J9MjUP7-1" source="sz9JhtiLYMQQ4J9MjUP7-2" target="fdmMfQQIDtmYKa4RIqW1-1">
          <mxGeometry relative="1" as="geometry">
            <mxPoint x="783.6500000000001" as="sourcePoint" />
          </mxGeometry>
        </mxCell>
        <mxCell id="fdmMfQQIDtmYKa4RIqW1-11" value="Laboratory" style="swimlane;fontStyle=1;align=center;verticalAlign=top;childLayout=stackLayout;horizontal=1;startSize=26;horizontalStack=0;resizeParent=1;resizeParentMax=0;resizeLast=0;collapsible=1;marginBottom=0;" vertex="1" parent="sz9JhtiLYMQQ4J9MjUP7-1">
          <mxGeometry x="1170" y="100" width="160" height="86" as="geometry" />
        </mxCell>
        <mxCell id="fdmMfQQIDtmYKa4RIqW1-12" value="+ field: type" style="text;strokeColor=none;fillColor=none;align=left;verticalAlign=top;spacingLeft=4;spacingRight=4;overflow=hidden;rotatable=0;points=[[0,0.5],[1,0.5]];portConstraint=eastwest;" vertex="1" parent="fdmMfQQIDtmYKa4RIqW1-11">
          <mxGeometry y="26" width="160" height="26" as="geometry" />
        </mxCell>
        <mxCell id="fdmMfQQIDtmYKa4RIqW1-13" value="" style="line;strokeWidth=1;fillColor=none;align=left;verticalAlign=middle;spacingTop=-1;spacingLeft=3;spacingRight=3;rotatable=0;labelPosition=right;points=[];portConstraint=eastwest;" vertex="1" parent="fdmMfQQIDtmYKa4RIqW1-11">
          <mxGeometry y="52" width="160" height="8" as="geometry" />
        </mxCell>
        <mxCell id="fdmMfQQIDtmYKa4RIqW1-14" value="+ method(type): type" style="text;strokeColor=none;fillColor=none;align=left;verticalAlign=top;spacingLeft=4;spacingRight=4;overflow=hidden;rotatable=0;points=[[0,0.5],[1,0.5]];portConstraint=eastwest;" vertex="1" parent="fdmMfQQIDtmYKa4RIqW1-11">
          <mxGeometry y="60" width="160" height="26" as="geometry" />
        </mxCell>
        <mxCell id="oCo8V_geaLiSocHJf87K-0" value="Admin" style="swimlane;fontStyle=1;align=center;verticalAlign=top;childLayout=stackLayout;horizontal=1;startSize=26;horizontalStack=0;resizeParent=1;resizeParentMax=0;resizeLast=0;collapsible=1;marginBottom=0;" vertex="1" parent="sz9JhtiLYMQQ4J9MjUP7-1">
          <mxGeometry x="990" y="-40" width="160" height="86" as="geometry" />
        </mxCell>
        <mxCell id="oCo8V_geaLiSocHJf87K-1" value="+ field: type" style="text;strokeColor=none;fillColor=none;align=left;verticalAlign=top;spacingLeft=4;spacingRight=4;overflow=hidden;rotatable=0;points=[[0,0.5],[1,0.5]];portConstraint=eastwest;" vertex="1" parent="oCo8V_geaLiSocHJf87K-0">
          <mxGeometry y="26" width="160" height="26" as="geometry" />
        </mxCell>
        <mxCell id="oCo8V_geaLiSocHJf87K-2" value="" style="line;strokeWidth=1;fillColor=none;align=left;verticalAlign=middle;spacingTop=-1;spacingLeft=3;spacingRight=3;rotatable=0;labelPosition=right;points=[];portConstraint=eastwest;" vertex="1" parent="oCo8V_geaLiSocHJf87K-0">
          <mxGeometry y="52" width="160" height="8" as="geometry" />
        </mxCell>
        <mxCell id="oCo8V_geaLiSocHJf87K-3" value="+ method(type): type" style="text;strokeColor=none;fillColor=none;align=left;verticalAlign=top;spacingLeft=4;spacingRight=4;overflow=hidden;rotatable=0;points=[[0,0.5],[1,0.5]];portConstraint=eastwest;" vertex="1" parent="oCo8V_geaLiSocHJf87K-0">
          <mxGeometry y="60" width="160" height="26" as="geometry" />
        </mxCell>
        <mxCell id="oCo8V_geaLiSocHJf87K-4" style="edgeStyle=none;rounded=0;orthogonalLoop=1;jettySize=auto;html=1;endArrow=block;endFill=0;strokeWidth=1;" edge="1" parent="sz9JhtiLYMQQ4J9MjUP7-1" source="oCo8V_geaLiSocHJf87K-0" target="fdmMfQQIDtmYKa4RIqW1-1">
          <mxGeometry relative="1" as="geometry">
            <mxPoint x="957.0999999999999" y="110" as="sourcePoint" />
            <mxPoint x="892.9000000000001" y="-104" as="targetPoint" />
          </mxGeometry>
        </mxCell>
        <mxCell id="oCo8V_geaLiSocHJf87K-5" value="Login" style="swimlane;fontStyle=1;align=center;verticalAlign=top;childLayout=stackLayout;horizontal=1;startSize=26;horizontalStack=0;resizeParent=1;resizeParentMax=0;resizeLast=0;collapsible=1;marginBottom=0;" vertex="1" parent="sz9JhtiLYMQQ4J9MjUP7-1">
          <mxGeometry x="1180" y="-212" width="160" height="110" as="geometry" />
        </mxCell>
        <mxCell id="oCo8V_geaLiSocHJf87K-9" value="+ email: string" style="text;strokeColor=none;fillColor=none;align=left;verticalAlign=top;spacingLeft=4;spacingRight=4;overflow=hidden;rotatable=0;points=[[0,0.5],[1,0.5]];portConstraint=eastwest;" vertex="1" parent="oCo8V_geaLiSocHJf87K-5">
          <mxGeometry y="26" width="160" height="24" as="geometry" />
        </mxCell>
        <mxCell id="oCo8V_geaLiSocHJf87K-6" value="+ passwd: hash" style="text;strokeColor=none;fillColor=none;align=left;verticalAlign=top;spacingLeft=4;spacingRight=4;overflow=hidden;rotatable=0;points=[[0,0.5],[1,0.5]];portConstraint=eastwest;" vertex="1" parent="oCo8V_geaLiSocHJf87K-5">
          <mxGeometry y="50" width="160" height="26" as="geometry" />
        </mxCell>
        <mxCell id="oCo8V_geaLiSocHJf87K-7" value="" style="line;strokeWidth=1;fillColor=none;align=left;verticalAlign=middle;spacingTop=-1;spacingLeft=3;spacingRight=3;rotatable=0;labelPosition=right;points=[];portConstraint=eastwest;" vertex="1" parent="oCo8V_geaLiSocHJf87K-5">
          <mxGeometry y="76" width="160" height="8" as="geometry" />
        </mxCell>
        <mxCell id="oCo8V_geaLiSocHJf87K-8" value="+ method(type): type" style="text;strokeColor=none;fillColor=none;align=left;verticalAlign=top;spacingLeft=4;spacingRight=4;overflow=hidden;rotatable=0;points=[[0,0.5],[1,0.5]];portConstraint=eastwest;" vertex="1" parent="oCo8V_geaLiSocHJf87K-5">
          <mxGeometry y="84" width="160" height="26" as="geometry" />
        </mxCell>
      </root>
    </mxGraphModel>
  </diagram>
  <diagram id="oOB0yOHJeGh_9lcLsnoo" name="Database">
    <mxGraphModel dx="1912" dy="2004" grid="1" gridSize="10" guides="1" tooltips="1" connect="1" arrows="1" fold="1" page="1" pageScale="1" pageWidth="827" pageHeight="1169" math="0" shadow="0">
      <root>
        <mxCell id="SF6yrw-92o7nbMmaH8Ug-0" />
        <mxCell id="SF6yrw-92o7nbMmaH8Ug-1" parent="SF6yrw-92o7nbMmaH8Ug-0" />
        <mxCell id="SF6yrw-92o7nbMmaH8Ug-2" value="User" style="shape=table;startSize=30;container=1;collapsible=1;childLayout=tableLayout;fixedRows=1;rowLines=0;fontStyle=1;align=center;resizeLast=1;" vertex="1" parent="SF6yrw-92o7nbMmaH8Ug-1">
          <mxGeometry x="360" y="15" width="180" height="210" as="geometry" />
        </mxCell>
        <mxCell id="SF6yrw-92o7nbMmaH8Ug-3" value="" style="shape=partialRectangle;collapsible=0;dropTarget=0;pointerEvents=0;fillColor=none;top=0;left=0;bottom=1;right=0;points=[[0,0.5],[1,0.5]];portConstraint=eastwest;" vertex="1" parent="SF6yrw-92o7nbMmaH8Ug-2">
          <mxGeometry y="30" width="180" height="30" as="geometry" />
        </mxCell>
        <mxCell id="SF6yrw-92o7nbMmaH8Ug-4" value="PK" style="shape=partialRectangle;connectable=0;fillColor=none;top=0;left=0;bottom=0;right=0;fontStyle=1;overflow=hidden;" vertex="1" parent="SF6yrw-92o7nbMmaH8Ug-3">
          <mxGeometry width="30" height="30" as="geometry">
            <mxRectangle width="30" height="30" as="alternateBounds" />
          </mxGeometry>
        </mxCell>
        <mxCell id="SF6yrw-92o7nbMmaH8Ug-5" value="IDUSER" style="shape=partialRectangle;connectable=0;fillColor=none;top=0;left=0;bottom=0;right=0;align=left;spacingLeft=6;fontStyle=5;overflow=hidden;" vertex="1" parent="SF6yrw-92o7nbMmaH8Ug-3">
          <mxGeometry x="30" width="150" height="30" as="geometry">
            <mxRectangle width="150" height="30" as="alternateBounds" />
          </mxGeometry>
        </mxCell>
        <mxCell id="SF6yrw-92o7nbMmaH8Ug-6" value="" style="shape=partialRectangle;collapsible=0;dropTarget=0;pointerEvents=0;fillColor=none;top=0;left=0;bottom=0;right=0;points=[[0,0.5],[1,0.5]];portConstraint=eastwest;" vertex="1" parent="SF6yrw-92o7nbMmaH8Ug-2">
          <mxGeometry y="60" width="180" height="30" as="geometry" />
        </mxCell>
        <mxCell id="SF6yrw-92o7nbMmaH8Ug-7" value="" style="shape=partialRectangle;connectable=0;fillColor=none;top=0;left=0;bottom=0;right=0;editable=1;overflow=hidden;" vertex="1" parent="SF6yrw-92o7nbMmaH8Ug-6">
          <mxGeometry width="30" height="30" as="geometry">
            <mxRectangle width="30" height="30" as="alternateBounds" />
          </mxGeometry>
        </mxCell>
        <mxCell id="SF6yrw-92o7nbMmaH8Ug-8" value="NAME" style="shape=partialRectangle;connectable=0;fillColor=none;top=0;left=0;bottom=0;right=0;align=left;spacingLeft=6;overflow=hidden;" vertex="1" parent="SF6yrw-92o7nbMmaH8Ug-6">
          <mxGeometry x="30" width="150" height="30" as="geometry">
            <mxRectangle width="150" height="30" as="alternateBounds" />
          </mxGeometry>
        </mxCell>
        <mxCell id="SF6yrw-92o7nbMmaH8Ug-9" value="" style="shape=partialRectangle;collapsible=0;dropTarget=0;pointerEvents=0;fillColor=none;top=0;left=0;bottom=0;right=0;points=[[0,0.5],[1,0.5]];portConstraint=eastwest;" vertex="1" parent="SF6yrw-92o7nbMmaH8Ug-2">
          <mxGeometry y="90" width="180" height="30" as="geometry" />
        </mxCell>
        <mxCell id="SF6yrw-92o7nbMmaH8Ug-10" value="" style="shape=partialRectangle;connectable=0;fillColor=none;top=0;left=0;bottom=0;right=0;editable=1;overflow=hidden;" vertex="1" parent="SF6yrw-92o7nbMmaH8Ug-9">
          <mxGeometry width="30" height="30" as="geometry">
            <mxRectangle width="30" height="30" as="alternateBounds" />
          </mxGeometry>
        </mxCell>
        <mxCell id="SF6yrw-92o7nbMmaH8Ug-11" value="EMAIL" style="shape=partialRectangle;connectable=0;fillColor=none;top=0;left=0;bottom=0;right=0;align=left;spacingLeft=6;overflow=hidden;" vertex="1" parent="SF6yrw-92o7nbMmaH8Ug-9">
          <mxGeometry x="30" width="150" height="30" as="geometry">
            <mxRectangle width="150" height="30" as="alternateBounds" />
          </mxGeometry>
        </mxCell>
        <mxCell id="SF6yrw-92o7nbMmaH8Ug-12" value="" style="shape=partialRectangle;collapsible=0;dropTarget=0;pointerEvents=0;fillColor=none;top=0;left=0;bottom=0;right=0;points=[[0,0.5],[1,0.5]];portConstraint=eastwest;" vertex="1" parent="SF6yrw-92o7nbMmaH8Ug-2">
          <mxGeometry y="120" width="180" height="30" as="geometry" />
        </mxCell>
        <mxCell id="SF6yrw-92o7nbMmaH8Ug-13" value="" style="shape=partialRectangle;connectable=0;fillColor=none;top=0;left=0;bottom=0;right=0;editable=1;overflow=hidden;" vertex="1" parent="SF6yrw-92o7nbMmaH8Ug-12">
          <mxGeometry width="30" height="30" as="geometry">
            <mxRectangle width="30" height="30" as="alternateBounds" />
          </mxGeometry>
        </mxCell>
        <mxCell id="SF6yrw-92o7nbMmaH8Ug-14" value="PHONE" style="shape=partialRectangle;connectable=0;fillColor=none;top=0;left=0;bottom=0;right=0;align=left;spacingLeft=6;overflow=hidden;" vertex="1" parent="SF6yrw-92o7nbMmaH8Ug-12">
          <mxGeometry x="30" width="150" height="30" as="geometry">
            <mxRectangle width="150" height="30" as="alternateBounds" />
          </mxGeometry>
        </mxCell>
        <mxCell id="SF6yrw-92o7nbMmaH8Ug-29" value="" style="shape=partialRectangle;collapsible=0;dropTarget=0;pointerEvents=0;fillColor=none;top=0;left=0;bottom=0;right=0;points=[[0,0.5],[1,0.5]];portConstraint=eastwest;" vertex="1" parent="SF6yrw-92o7nbMmaH8Ug-2">
          <mxGeometry y="150" width="180" height="30" as="geometry" />
        </mxCell>
        <mxCell id="SF6yrw-92o7nbMmaH8Ug-30" value="FK" style="shape=partialRectangle;connectable=0;fillColor=none;top=0;left=0;bottom=0;right=0;editable=1;overflow=hidden;" vertex="1" parent="SF6yrw-92o7nbMmaH8Ug-29">
          <mxGeometry width="30" height="30" as="geometry">
            <mxRectangle width="30" height="30" as="alternateBounds" />
          </mxGeometry>
        </mxCell>
        <mxCell id="SF6yrw-92o7nbMmaH8Ug-31" value="ROLE" style="shape=partialRectangle;connectable=0;fillColor=none;top=0;left=0;bottom=0;right=0;align=left;spacingLeft=6;overflow=hidden;" vertex="1" parent="SF6yrw-92o7nbMmaH8Ug-29">
          <mxGeometry x="30" width="150" height="30" as="geometry">
            <mxRectangle width="150" height="30" as="alternateBounds" />
          </mxGeometry>
        </mxCell>
        <mxCell id="rknfuvOTV5Rwy86-XGaZ-29" value="" style="shape=partialRectangle;collapsible=0;dropTarget=0;pointerEvents=0;fillColor=none;top=0;left=0;bottom=0;right=0;points=[[0,0.5],[1,0.5]];portConstraint=eastwest;" vertex="1" parent="SF6yrw-92o7nbMmaH8Ug-2">
          <mxGeometry y="180" width="180" height="30" as="geometry" />
        </mxCell>
        <mxCell id="rknfuvOTV5Rwy86-XGaZ-30" value="FK" style="shape=partialRectangle;connectable=0;fillColor=none;top=0;left=0;bottom=0;right=0;editable=1;overflow=hidden;" vertex="1" parent="rknfuvOTV5Rwy86-XGaZ-29">
          <mxGeometry width="30" height="30" as="geometry">
            <mxRectangle width="30" height="30" as="alternateBounds" />
          </mxGeometry>
        </mxCell>
        <mxCell id="rknfuvOTV5Rwy86-XGaZ-31" value="LABORATORY" style="shape=partialRectangle;connectable=0;fillColor=none;top=0;left=0;bottom=0;right=0;align=left;spacingLeft=6;overflow=hidden;" vertex="1" parent="rknfuvOTV5Rwy86-XGaZ-29">
          <mxGeometry x="30" width="150" height="30" as="geometry">
            <mxRectangle width="150" height="30" as="alternateBounds" />
          </mxGeometry>
        </mxCell>
        <mxCell id="SF6yrw-92o7nbMmaH8Ug-15" value="Login" style="shape=table;startSize=30;container=1;collapsible=1;childLayout=tableLayout;fixedRows=1;rowLines=0;fontStyle=1;align=center;resizeLast=1;" vertex="1" parent="SF6yrw-92o7nbMmaH8Ug-1">
          <mxGeometry x="60" y="40" width="180" height="160" as="geometry" />
        </mxCell>
        <mxCell id="SF6yrw-92o7nbMmaH8Ug-16" value="" style="shape=partialRectangle;collapsible=0;dropTarget=0;pointerEvents=0;fillColor=none;top=0;left=0;bottom=1;right=0;points=[[0,0.5],[1,0.5]];portConstraint=eastwest;" vertex="1" parent="SF6yrw-92o7nbMmaH8Ug-15">
          <mxGeometry y="30" width="180" height="30" as="geometry" />
        </mxCell>
        <mxCell id="SF6yrw-92o7nbMmaH8Ug-17" value="PK" style="shape=partialRectangle;connectable=0;fillColor=none;top=0;left=0;bottom=0;right=0;fontStyle=1;overflow=hidden;" vertex="1" parent="SF6yrw-92o7nbMmaH8Ug-16">
          <mxGeometry width="30" height="30" as="geometry">
            <mxRectangle width="30" height="30" as="alternateBounds" />
          </mxGeometry>
        </mxCell>
        <mxCell id="SF6yrw-92o7nbMmaH8Ug-18" value="IDLOGIN" style="shape=partialRectangle;connectable=0;fillColor=none;top=0;left=0;bottom=0;right=0;align=left;spacingLeft=6;fontStyle=5;overflow=hidden;" vertex="1" parent="SF6yrw-92o7nbMmaH8Ug-16">
          <mxGeometry x="30" width="150" height="30" as="geometry">
            <mxRectangle width="150" height="30" as="alternateBounds" />
          </mxGeometry>
        </mxCell>
        <mxCell id="SF6yrw-92o7nbMmaH8Ug-19" value="" style="shape=partialRectangle;collapsible=0;dropTarget=0;pointerEvents=0;fillColor=none;top=0;left=0;bottom=0;right=0;points=[[0,0.5],[1,0.5]];portConstraint=eastwest;" vertex="1" parent="SF6yrw-92o7nbMmaH8Ug-15">
          <mxGeometry y="60" width="180" height="30" as="geometry" />
        </mxCell>
        <mxCell id="SF6yrw-92o7nbMmaH8Ug-20" value="" style="shape=partialRectangle;connectable=0;fillColor=none;top=0;left=0;bottom=0;right=0;editable=1;overflow=hidden;" vertex="1" parent="SF6yrw-92o7nbMmaH8Ug-19">
          <mxGeometry width="30" height="30" as="geometry">
            <mxRectangle width="30" height="30" as="alternateBounds" />
          </mxGeometry>
        </mxCell>
        <mxCell id="SF6yrw-92o7nbMmaH8Ug-21" value="LOGIN" style="shape=partialRectangle;connectable=0;fillColor=none;top=0;left=0;bottom=0;right=0;align=left;spacingLeft=6;overflow=hidden;" vertex="1" parent="SF6yrw-92o7nbMmaH8Ug-19">
          <mxGeometry x="30" width="150" height="30" as="geometry">
            <mxRectangle width="150" height="30" as="alternateBounds" />
          </mxGeometry>
        </mxCell>
        <mxCell id="SF6yrw-92o7nbMmaH8Ug-22" value="" style="shape=partialRectangle;collapsible=0;dropTarget=0;pointerEvents=0;fillColor=none;top=0;left=0;bottom=0;right=0;points=[[0,0.5],[1,0.5]];portConstraint=eastwest;" vertex="1" parent="SF6yrw-92o7nbMmaH8Ug-15">
          <mxGeometry y="90" width="180" height="30" as="geometry" />
        </mxCell>
        <mxCell id="SF6yrw-92o7nbMmaH8Ug-23" value="" style="shape=partialRectangle;connectable=0;fillColor=none;top=0;left=0;bottom=0;right=0;editable=1;overflow=hidden;" vertex="1" parent="SF6yrw-92o7nbMmaH8Ug-22">
          <mxGeometry width="30" height="30" as="geometry">
            <mxRectangle width="30" height="30" as="alternateBounds" />
          </mxGeometry>
        </mxCell>
        <mxCell id="SF6yrw-92o7nbMmaH8Ug-24" value="PASSWD" style="shape=partialRectangle;connectable=0;fillColor=none;top=0;left=0;bottom=0;right=0;align=left;spacingLeft=6;overflow=hidden;" vertex="1" parent="SF6yrw-92o7nbMmaH8Ug-22">
          <mxGeometry x="30" width="150" height="30" as="geometry">
            <mxRectangle width="150" height="30" as="alternateBounds" />
          </mxGeometry>
        </mxCell>
        <mxCell id="SF6yrw-92o7nbMmaH8Ug-25" value="" style="shape=partialRectangle;collapsible=0;dropTarget=0;pointerEvents=0;fillColor=none;top=0;left=0;bottom=0;right=0;points=[[0,0.5],[1,0.5]];portConstraint=eastwest;" vertex="1" parent="SF6yrw-92o7nbMmaH8Ug-15">
          <mxGeometry y="120" width="180" height="30" as="geometry" />
        </mxCell>
        <mxCell id="SF6yrw-92o7nbMmaH8Ug-26" value="" style="shape=partialRectangle;connectable=0;fillColor=none;top=0;left=0;bottom=0;right=0;editable=1;overflow=hidden;" vertex="1" parent="SF6yrw-92o7nbMmaH8Ug-25">
          <mxGeometry width="30" height="30" as="geometry">
            <mxRectangle width="30" height="30" as="alternateBounds" />
          </mxGeometry>
        </mxCell>
        <mxCell id="SF6yrw-92o7nbMmaH8Ug-27" value="DATE_CREATION" style="shape=partialRectangle;connectable=0;fillColor=none;top=0;left=0;bottom=0;right=0;align=left;spacingLeft=6;overflow=hidden;" vertex="1" parent="SF6yrw-92o7nbMmaH8Ug-25">
          <mxGeometry x="30" width="150" height="30" as="geometry">
            <mxRectangle width="150" height="30" as="alternateBounds" />
          </mxGeometry>
        </mxCell>
        <mxCell id="SF6yrw-92o7nbMmaH8Ug-28" value="" style="edgeStyle=entityRelationEdgeStyle;fontSize=12;html=1;endArrow=ERmandOne;startArrow=ERmandOne;rounded=0;strokeWidth=1;" edge="1" parent="SF6yrw-92o7nbMmaH8Ug-1" source="SF6yrw-92o7nbMmaH8Ug-15" target="SF6yrw-92o7nbMmaH8Ug-2">
          <mxGeometry width="100" height="100" relative="1" as="geometry">
            <mxPoint x="250" y="410" as="sourcePoint" />
            <mxPoint x="350" y="310" as="targetPoint" />
          </mxGeometry>
        </mxCell>
        <mxCell id="rknfuvOTV5Rwy86-XGaZ-0" value="Roles" style="shape=table;startSize=30;container=1;collapsible=1;childLayout=tableLayout;fixedRows=1;rowLines=0;fontStyle=1;align=center;resizeLast=1;" vertex="1" parent="SF6yrw-92o7nbMmaH8Ug-1">
          <mxGeometry x="640" y="55" width="180" height="130" as="geometry" />
        </mxCell>
        <mxCell id="rknfuvOTV5Rwy86-XGaZ-1" value="" style="shape=partialRectangle;collapsible=0;dropTarget=0;pointerEvents=0;fillColor=none;top=0;left=0;bottom=1;right=0;points=[[0,0.5],[1,0.5]];portConstraint=eastwest;" vertex="1" parent="rknfuvOTV5Rwy86-XGaZ-0">
          <mxGeometry y="30" width="180" height="30" as="geometry" />
        </mxCell>
        <mxCell id="rknfuvOTV5Rwy86-XGaZ-2" value="PK" style="shape=partialRectangle;connectable=0;fillColor=none;top=0;left=0;bottom=0;right=0;fontStyle=1;overflow=hidden;" vertex="1" parent="rknfuvOTV5Rwy86-XGaZ-1">
          <mxGeometry width="30" height="30" as="geometry">
            <mxRectangle width="30" height="30" as="alternateBounds" />
          </mxGeometry>
        </mxCell>
        <mxCell id="rknfuvOTV5Rwy86-XGaZ-3" value="IDROLE" style="shape=partialRectangle;connectable=0;fillColor=none;top=0;left=0;bottom=0;right=0;align=left;spacingLeft=6;fontStyle=5;overflow=hidden;" vertex="1" parent="rknfuvOTV5Rwy86-XGaZ-1">
          <mxGeometry x="30" width="150" height="30" as="geometry">
            <mxRectangle width="150" height="30" as="alternateBounds" />
          </mxGeometry>
        </mxCell>
        <mxCell id="rknfuvOTV5Rwy86-XGaZ-4" value="" style="shape=partialRectangle;collapsible=0;dropTarget=0;pointerEvents=0;fillColor=none;top=0;left=0;bottom=0;right=0;points=[[0,0.5],[1,0.5]];portConstraint=eastwest;" vertex="1" parent="rknfuvOTV5Rwy86-XGaZ-0">
          <mxGeometry y="60" width="180" height="30" as="geometry" />
        </mxCell>
        <mxCell id="rknfuvOTV5Rwy86-XGaZ-5" value="" style="shape=partialRectangle;connectable=0;fillColor=none;top=0;left=0;bottom=0;right=0;editable=1;overflow=hidden;" vertex="1" parent="rknfuvOTV5Rwy86-XGaZ-4">
          <mxGeometry width="30" height="30" as="geometry">
            <mxRectangle width="30" height="30" as="alternateBounds" />
          </mxGeometry>
        </mxCell>
        <mxCell id="rknfuvOTV5Rwy86-XGaZ-6" value="DESCRIPTION" style="shape=partialRectangle;connectable=0;fillColor=none;top=0;left=0;bottom=0;right=0;align=left;spacingLeft=6;overflow=hidden;" vertex="1" parent="rknfuvOTV5Rwy86-XGaZ-4">
          <mxGeometry x="30" width="150" height="30" as="geometry">
            <mxRectangle width="150" height="30" as="alternateBounds" />
          </mxGeometry>
        </mxCell>
        <mxCell id="rknfuvOTV5Rwy86-XGaZ-7" value="" style="shape=partialRectangle;collapsible=0;dropTarget=0;pointerEvents=0;fillColor=none;top=0;left=0;bottom=0;right=0;points=[[0,0.5],[1,0.5]];portConstraint=eastwest;" vertex="1" parent="rknfuvOTV5Rwy86-XGaZ-0">
          <mxGeometry y="90" width="180" height="30" as="geometry" />
        </mxCell>
        <mxCell id="rknfuvOTV5Rwy86-XGaZ-8" value="" style="shape=partialRectangle;connectable=0;fillColor=none;top=0;left=0;bottom=0;right=0;editable=1;overflow=hidden;" vertex="1" parent="rknfuvOTV5Rwy86-XGaZ-7">
          <mxGeometry width="30" height="30" as="geometry">
            <mxRectangle width="30" height="30" as="alternateBounds" />
          </mxGeometry>
        </mxCell>
        <mxCell id="rknfuvOTV5Rwy86-XGaZ-9" value="PERMISSIONS" style="shape=partialRectangle;connectable=0;fillColor=none;top=0;left=0;bottom=0;right=0;align=left;spacingLeft=6;overflow=hidden;" vertex="1" parent="rknfuvOTV5Rwy86-XGaZ-7">
          <mxGeometry x="30" width="150" height="30" as="geometry">
            <mxRectangle width="150" height="30" as="alternateBounds" />
          </mxGeometry>
        </mxCell>
        <mxCell id="rknfuvOTV5Rwy86-XGaZ-13" value="" style="edgeStyle=entityRelationEdgeStyle;fontSize=12;html=1;endArrow=ERmandOne;startArrow=ERmandOne;rounded=0;strokeWidth=1;" edge="1" parent="SF6yrw-92o7nbMmaH8Ug-1" source="SF6yrw-92o7nbMmaH8Ug-2" target="rknfuvOTV5Rwy86-XGaZ-0">
          <mxGeometry width="100" height="100" relative="1" as="geometry">
            <mxPoint x="580" y="-10" as="sourcePoint" />
            <mxPoint x="700" y="-10" as="targetPoint" />
          </mxGeometry>
        </mxCell>
        <mxCell id="rknfuvOTV5Rwy86-XGaZ-14" value="Laboratory" style="shape=table;startSize=30;container=1;collapsible=1;childLayout=tableLayout;fixedRows=1;rowLines=0;fontStyle=1;align=center;resizeLast=1;" vertex="1" parent="SF6yrw-92o7nbMmaH8Ug-1">
          <mxGeometry x="360" y="270" width="180" height="100" as="geometry" />
        </mxCell>
        <mxCell id="rknfuvOTV5Rwy86-XGaZ-15" value="" style="shape=partialRectangle;collapsible=0;dropTarget=0;pointerEvents=0;fillColor=none;top=0;left=0;bottom=1;right=0;points=[[0,0.5],[1,0.5]];portConstraint=eastwest;" vertex="1" parent="rknfuvOTV5Rwy86-XGaZ-14">
          <mxGeometry y="30" width="180" height="30" as="geometry" />
        </mxCell>
        <mxCell id="rknfuvOTV5Rwy86-XGaZ-16" value="PK" style="shape=partialRectangle;connectable=0;fillColor=none;top=0;left=0;bottom=0;right=0;fontStyle=1;overflow=hidden;" vertex="1" parent="rknfuvOTV5Rwy86-XGaZ-15">
          <mxGeometry width="30" height="30" as="geometry">
            <mxRectangle width="30" height="30" as="alternateBounds" />
          </mxGeometry>
        </mxCell>
        <mxCell id="rknfuvOTV5Rwy86-XGaZ-17" value="IDLAB" style="shape=partialRectangle;connectable=0;fillColor=none;top=0;left=0;bottom=0;right=0;align=left;spacingLeft=6;fontStyle=5;overflow=hidden;" vertex="1" parent="rknfuvOTV5Rwy86-XGaZ-15">
          <mxGeometry x="30" width="150" height="30" as="geometry">
            <mxRectangle width="150" height="30" as="alternateBounds" />
          </mxGeometry>
        </mxCell>
        <mxCell id="rknfuvOTV5Rwy86-XGaZ-18" value="" style="shape=partialRectangle;collapsible=0;dropTarget=0;pointerEvents=0;fillColor=none;top=0;left=0;bottom=0;right=0;points=[[0,0.5],[1,0.5]];portConstraint=eastwest;" vertex="1" parent="rknfuvOTV5Rwy86-XGaZ-14">
          <mxGeometry y="60" width="180" height="30" as="geometry" />
        </mxCell>
        <mxCell id="rknfuvOTV5Rwy86-XGaZ-19" value="" style="shape=partialRectangle;connectable=0;fillColor=none;top=0;left=0;bottom=0;right=0;editable=1;overflow=hidden;" vertex="1" parent="rknfuvOTV5Rwy86-XGaZ-18">
          <mxGeometry width="30" height="30" as="geometry">
            <mxRectangle width="30" height="30" as="alternateBounds" />
          </mxGeometry>
        </mxCell>
        <mxCell id="rknfuvOTV5Rwy86-XGaZ-20" value="LOCATION" style="shape=partialRectangle;connectable=0;fillColor=none;top=0;left=0;bottom=0;right=0;align=left;spacingLeft=6;overflow=hidden;" vertex="1" parent="rknfuvOTV5Rwy86-XGaZ-18">
          <mxGeometry x="30" width="150" height="30" as="geometry">
            <mxRectangle width="150" height="30" as="alternateBounds" />
          </mxGeometry>
        </mxCell>
        <mxCell id="rknfuvOTV5Rwy86-XGaZ-32" value="Test" style="shape=table;startSize=30;container=1;collapsible=1;childLayout=tableLayout;fixedRows=1;rowLines=0;fontStyle=1;align=center;resizeLast=1;" vertex="1" parent="SF6yrw-92o7nbMmaH8Ug-1">
          <mxGeometry x="60" y="-270" width="180" height="280" as="geometry" />
        </mxCell>
        <mxCell id="rknfuvOTV5Rwy86-XGaZ-33" value="" style="shape=partialRectangle;collapsible=0;dropTarget=0;pointerEvents=0;fillColor=none;top=0;left=0;bottom=1;right=0;points=[[0,0.5],[1,0.5]];portConstraint=eastwest;" vertex="1" parent="rknfuvOTV5Rwy86-XGaZ-32">
          <mxGeometry y="30" width="180" height="30" as="geometry" />
        </mxCell>
        <mxCell id="rknfuvOTV5Rwy86-XGaZ-34" value="PK" style="shape=partialRectangle;connectable=0;fillColor=none;top=0;left=0;bottom=0;right=0;fontStyle=1;overflow=hidden;" vertex="1" parent="rknfuvOTV5Rwy86-XGaZ-33">
          <mxGeometry width="30" height="30" as="geometry">
            <mxRectangle width="30" height="30" as="alternateBounds" />
          </mxGeometry>
        </mxCell>
        <mxCell id="rknfuvOTV5Rwy86-XGaZ-35" value="IDTEST" style="shape=partialRectangle;connectable=0;fillColor=none;top=0;left=0;bottom=0;right=0;align=left;spacingLeft=6;fontStyle=5;overflow=hidden;" vertex="1" parent="rknfuvOTV5Rwy86-XGaZ-33">
          <mxGeometry x="30" width="150" height="30" as="geometry">
            <mxRectangle width="150" height="30" as="alternateBounds" />
          </mxGeometry>
        </mxCell>
        <mxCell id="rknfuvOTV5Rwy86-XGaZ-81" value="" style="shape=partialRectangle;collapsible=0;dropTarget=0;pointerEvents=0;fillColor=none;top=0;left=0;bottom=0;right=0;points=[[0,0.5],[1,0.5]];portConstraint=eastwest;" vertex="1" parent="rknfuvOTV5Rwy86-XGaZ-32">
          <mxGeometry y="60" width="180" height="30" as="geometry" />
        </mxCell>
        <mxCell id="rknfuvOTV5Rwy86-XGaZ-82" value="FK" style="shape=partialRectangle;connectable=0;fillColor=none;top=0;left=0;bottom=0;right=0;editable=1;overflow=hidden;" vertex="1" parent="rknfuvOTV5Rwy86-XGaZ-81">
          <mxGeometry width="30" height="30" as="geometry">
            <mxRectangle width="30" height="30" as="alternateBounds" />
          </mxGeometry>
        </mxCell>
        <mxCell id="rknfuvOTV5Rwy86-XGaZ-83" value="IDUSER" style="shape=partialRectangle;connectable=0;fillColor=none;top=0;left=0;bottom=0;right=0;align=left;spacingLeft=6;overflow=hidden;" vertex="1" parent="rknfuvOTV5Rwy86-XGaZ-81">
          <mxGeometry x="30" width="150" height="30" as="geometry">
            <mxRectangle width="150" height="30" as="alternateBounds" />
          </mxGeometry>
        </mxCell>
        <mxCell id="rknfuvOTV5Rwy86-XGaZ-36" value="" style="shape=partialRectangle;collapsible=0;dropTarget=0;pointerEvents=0;fillColor=none;top=0;left=0;bottom=0;right=0;points=[[0,0.5],[1,0.5]];portConstraint=eastwest;" vertex="1" parent="rknfuvOTV5Rwy86-XGaZ-32">
          <mxGeometry y="90" width="180" height="30" as="geometry" />
        </mxCell>
        <mxCell id="rknfuvOTV5Rwy86-XGaZ-37" value="" style="shape=partialRectangle;connectable=0;fillColor=none;top=0;left=0;bottom=0;right=0;editable=1;overflow=hidden;" vertex="1" parent="rknfuvOTV5Rwy86-XGaZ-36">
          <mxGeometry width="30" height="30" as="geometry">
            <mxRectangle width="30" height="30" as="alternateBounds" />
          </mxGeometry>
        </mxCell>
        <mxCell id="rknfuvOTV5Rwy86-XGaZ-38" value="DESCRIPTION" style="shape=partialRectangle;connectable=0;fillColor=none;top=0;left=0;bottom=0;right=0;align=left;spacingLeft=6;overflow=hidden;" vertex="1" parent="rknfuvOTV5Rwy86-XGaZ-36">
          <mxGeometry x="30" width="150" height="30" as="geometry">
            <mxRectangle width="150" height="30" as="alternateBounds" />
          </mxGeometry>
        </mxCell>
        <mxCell id="rknfuvOTV5Rwy86-XGaZ-39" value="" style="shape=partialRectangle;collapsible=0;dropTarget=0;pointerEvents=0;fillColor=none;top=0;left=0;bottom=0;right=0;points=[[0,0.5],[1,0.5]];portConstraint=eastwest;" vertex="1" parent="rknfuvOTV5Rwy86-XGaZ-32">
          <mxGeometry y="120" width="180" height="30" as="geometry" />
        </mxCell>
        <mxCell id="rknfuvOTV5Rwy86-XGaZ-40" value="" style="shape=partialRectangle;connectable=0;fillColor=none;top=0;left=0;bottom=0;right=0;editable=1;overflow=hidden;" vertex="1" parent="rknfuvOTV5Rwy86-XGaZ-39">
          <mxGeometry width="30" height="30" as="geometry">
            <mxRectangle width="30" height="30" as="alternateBounds" />
          </mxGeometry>
        </mxCell>
        <mxCell id="rknfuvOTV5Rwy86-XGaZ-41" value="CREATION_DATE" style="shape=partialRectangle;connectable=0;fillColor=none;top=0;left=0;bottom=0;right=0;align=left;spacingLeft=6;overflow=hidden;" vertex="1" parent="rknfuvOTV5Rwy86-XGaZ-39">
          <mxGeometry x="30" width="150" height="30" as="geometry">
            <mxRectangle width="150" height="30" as="alternateBounds" />
          </mxGeometry>
        </mxCell>
        <mxCell id="rknfuvOTV5Rwy86-XGaZ-42" value="" style="shape=partialRectangle;collapsible=0;dropTarget=0;pointerEvents=0;fillColor=none;top=0;left=0;bottom=0;right=0;points=[[0,0.5],[1,0.5]];portConstraint=eastwest;" vertex="1" parent="rknfuvOTV5Rwy86-XGaZ-32">
          <mxGeometry y="150" width="180" height="30" as="geometry" />
        </mxCell>
        <mxCell id="rknfuvOTV5Rwy86-XGaZ-43" value="" style="shape=partialRectangle;connectable=0;fillColor=none;top=0;left=0;bottom=0;right=0;editable=1;overflow=hidden;" vertex="1" parent="rknfuvOTV5Rwy86-XGaZ-42">
          <mxGeometry width="30" height="30" as="geometry">
            <mxRectangle width="30" height="30" as="alternateBounds" />
          </mxGeometry>
        </mxCell>
        <mxCell id="rknfuvOTV5Rwy86-XGaZ-44" value="TEST_DATE" style="shape=partialRectangle;connectable=0;fillColor=none;top=0;left=0;bottom=0;right=0;align=left;spacingLeft=6;overflow=hidden;" vertex="1" parent="rknfuvOTV5Rwy86-XGaZ-42">
          <mxGeometry x="30" width="150" height="30" as="geometry">
            <mxRectangle width="150" height="30" as="alternateBounds" />
          </mxGeometry>
        </mxCell>
        <mxCell id="rknfuvOTV5Rwy86-XGaZ-46" value="" style="shape=partialRectangle;collapsible=0;dropTarget=0;pointerEvents=0;fillColor=none;top=0;left=0;bottom=0;right=0;points=[[0,0.5],[1,0.5]];portConstraint=eastwest;" vertex="1" parent="rknfuvOTV5Rwy86-XGaZ-32">
          <mxGeometry y="180" width="180" height="30" as="geometry" />
        </mxCell>
        <mxCell id="rknfuvOTV5Rwy86-XGaZ-47" value="FK" style="shape=partialRectangle;connectable=0;fillColor=none;top=0;left=0;bottom=0;right=0;editable=1;overflow=hidden;" vertex="1" parent="rknfuvOTV5Rwy86-XGaZ-46">
          <mxGeometry width="30" height="30" as="geometry">
            <mxRectangle width="30" height="30" as="alternateBounds" />
          </mxGeometry>
        </mxCell>
        <mxCell id="rknfuvOTV5Rwy86-XGaZ-48" value="TECHNICIAN" style="shape=partialRectangle;connectable=0;fillColor=none;top=0;left=0;bottom=0;right=0;align=left;spacingLeft=6;overflow=hidden;" vertex="1" parent="rknfuvOTV5Rwy86-XGaZ-46">
          <mxGeometry x="30" width="150" height="30" as="geometry">
            <mxRectangle width="150" height="30" as="alternateBounds" />
          </mxGeometry>
        </mxCell>
        <mxCell id="rknfuvOTV5Rwy86-XGaZ-50" value="" style="shape=partialRectangle;collapsible=0;dropTarget=0;pointerEvents=0;fillColor=none;top=0;left=0;bottom=0;right=0;points=[[0,0.5],[1,0.5]];portConstraint=eastwest;" vertex="1" parent="rknfuvOTV5Rwy86-XGaZ-32">
          <mxGeometry y="210" width="180" height="30" as="geometry" />
        </mxCell>
        <mxCell id="rknfuvOTV5Rwy86-XGaZ-51" value="" style="shape=partialRectangle;connectable=0;fillColor=none;top=0;left=0;bottom=0;right=0;editable=1;overflow=hidden;" vertex="1" parent="rknfuvOTV5Rwy86-XGaZ-50">
          <mxGeometry width="30" height="30" as="geometry">
            <mxRectangle width="30" height="30" as="alternateBounds" />
          </mxGeometry>
        </mxCell>
        <mxCell id="rknfuvOTV5Rwy86-XGaZ-52" value="RESULT" style="shape=partialRectangle;connectable=0;fillColor=none;top=0;left=0;bottom=0;right=0;align=left;spacingLeft=6;overflow=hidden;" vertex="1" parent="rknfuvOTV5Rwy86-XGaZ-50">
          <mxGeometry x="30" width="150" height="30" as="geometry">
            <mxRectangle width="150" height="30" as="alternateBounds" />
          </mxGeometry>
        </mxCell>
        <mxCell id="rHNMlAd3va6fa3rfL9Q3-0" value="" style="shape=partialRectangle;collapsible=0;dropTarget=0;pointerEvents=0;fillColor=none;top=0;left=0;bottom=0;right=0;points=[[0,0.5],[1,0.5]];portConstraint=eastwest;" vertex="1" parent="rknfuvOTV5Rwy86-XGaZ-32">
          <mxGeometry y="240" width="180" height="30" as="geometry" />
        </mxCell>
        <mxCell id="rHNMlAd3va6fa3rfL9Q3-1" value="FK" style="shape=partialRectangle;connectable=0;fillColor=none;top=0;left=0;bottom=0;right=0;editable=1;overflow=hidden;" vertex="1" parent="rHNMlAd3va6fa3rfL9Q3-0">
          <mxGeometry width="30" height="30" as="geometry">
            <mxRectangle width="30" height="30" as="alternateBounds" />
          </mxGeometry>
        </mxCell>
        <mxCell id="rHNMlAd3va6fa3rfL9Q3-2" value="TEST_TYPE" style="shape=partialRectangle;connectable=0;fillColor=none;top=0;left=0;bottom=0;right=0;align=left;spacingLeft=6;overflow=hidden;" vertex="1" parent="rHNMlAd3va6fa3rfL9Q3-0">
          <mxGeometry x="30" width="150" height="30" as="geometry">
            <mxRectangle width="150" height="30" as="alternateBounds" />
          </mxGeometry>
        </mxCell>
        <mxCell id="rknfuvOTV5Rwy86-XGaZ-49" value="" style="edgeStyle=entityRelationEdgeStyle;fontSize=12;html=1;endArrow=ERoneToMany;rounded=0;strokeWidth=1;entryX=1;entryY=0.5;entryDx=0;entryDy=0;exitX=0;exitY=0.5;exitDx=0;exitDy=0;" edge="1" parent="SF6yrw-92o7nbMmaH8Ug-1" source="SF6yrw-92o7nbMmaH8Ug-3" target="rknfuvOTV5Rwy86-XGaZ-46">
          <mxGeometry width="100" height="100" relative="1" as="geometry">
            <mxPoint x="350" y="-130" as="sourcePoint" />
            <mxPoint x="340" y="320" as="targetPoint" />
          </mxGeometry>
        </mxCell>
        <mxCell id="rknfuvOTV5Rwy86-XGaZ-84" value="" style="edgeStyle=elbowEdgeStyle;fontSize=12;html=1;endArrow=ERoneToMany;rounded=0;strokeWidth=1;exitX=1;exitY=0.5;exitDx=0;exitDy=0;entryX=1;entryY=0.5;entryDx=0;entryDy=0;" edge="1" parent="SF6yrw-92o7nbMmaH8Ug-1" source="SF6yrw-92o7nbMmaH8Ug-3" target="rknfuvOTV5Rwy86-XGaZ-33">
          <mxGeometry width="100" height="100" relative="1" as="geometry">
            <mxPoint x="250" y="-65" as="sourcePoint" />
            <mxPoint x="650" y="-80" as="targetPoint" />
            <Array as="points">
              <mxPoint x="560" y="-60" />
            </Array>
          </mxGeometry>
        </mxCell>
        <mxCell id="rknfuvOTV5Rwy86-XGaZ-86" value="" style="edgeStyle=entityRelationEdgeStyle;fontSize=12;html=1;endArrow=ERoneToMany;rounded=0;strokeWidth=1;entryX=1;entryY=0.5;entryDx=0;entryDy=0;exitX=1;exitY=0.5;exitDx=0;exitDy=0;" edge="1" parent="SF6yrw-92o7nbMmaH8Ug-1" source="rknfuvOTV5Rwy86-XGaZ-15" target="rknfuvOTV5Rwy86-XGaZ-29">
          <mxGeometry width="100" height="100" relative="1" as="geometry">
            <mxPoint x="260" y="-55" as="sourcePoint" />
            <mxPoint x="380" y="80" as="targetPoint" />
          </mxGeometry>
        </mxCell>
        <mxCell id="rHNMlAd3va6fa3rfL9Q3-3" value="Test_types" style="shape=table;startSize=30;container=1;collapsible=1;childLayout=tableLayout;fixedRows=1;rowLines=0;fontStyle=1;align=center;resizeLast=1;" vertex="1" parent="SF6yrw-92o7nbMmaH8Ug-1">
          <mxGeometry x="-200" y="-240" width="180" height="160" as="geometry" />
        </mxCell>
        <mxCell id="rHNMlAd3va6fa3rfL9Q3-4" value="" style="shape=partialRectangle;collapsible=0;dropTarget=0;pointerEvents=0;fillColor=none;top=0;left=0;bottom=1;right=0;points=[[0,0.5],[1,0.5]];portConstraint=eastwest;" vertex="1" parent="rHNMlAd3va6fa3rfL9Q3-3">
          <mxGeometry y="30" width="180" height="30" as="geometry" />
        </mxCell>
        <mxCell id="rHNMlAd3va6fa3rfL9Q3-5" value="PK" style="shape=partialRectangle;connectable=0;fillColor=none;top=0;left=0;bottom=0;right=0;fontStyle=1;overflow=hidden;" vertex="1" parent="rHNMlAd3va6fa3rfL9Q3-4">
          <mxGeometry width="30" height="30" as="geometry">
            <mxRectangle width="30" height="30" as="alternateBounds" />
          </mxGeometry>
        </mxCell>
        <mxCell id="rHNMlAd3va6fa3rfL9Q3-6" value="IDTYPE" style="shape=partialRectangle;connectable=0;fillColor=none;top=0;left=0;bottom=0;right=0;align=left;spacingLeft=6;fontStyle=5;overflow=hidden;" vertex="1" parent="rHNMlAd3va6fa3rfL9Q3-4">
          <mxGeometry x="30" width="150" height="30" as="geometry">
            <mxRectangle width="150" height="30" as="alternateBounds" />
          </mxGeometry>
        </mxCell>
        <mxCell id="rHNMlAd3va6fa3rfL9Q3-7" value="" style="shape=partialRectangle;collapsible=0;dropTarget=0;pointerEvents=0;fillColor=none;top=0;left=0;bottom=0;right=0;points=[[0,0.5],[1,0.5]];portConstraint=eastwest;" vertex="1" parent="rHNMlAd3va6fa3rfL9Q3-3">
          <mxGeometry y="60" width="180" height="30" as="geometry" />
        </mxCell>
        <mxCell id="rHNMlAd3va6fa3rfL9Q3-8" value="" style="shape=partialRectangle;connectable=0;fillColor=none;top=0;left=0;bottom=0;right=0;editable=1;overflow=hidden;" vertex="1" parent="rHNMlAd3va6fa3rfL9Q3-7">
          <mxGeometry width="30" height="30" as="geometry">
            <mxRectangle width="30" height="30" as="alternateBounds" />
          </mxGeometry>
        </mxCell>
        <mxCell id="rHNMlAd3va6fa3rfL9Q3-9" value="TYPE" style="shape=partialRectangle;connectable=0;fillColor=none;top=0;left=0;bottom=0;right=0;align=left;spacingLeft=6;overflow=hidden;" vertex="1" parent="rHNMlAd3va6fa3rfL9Q3-7">
          <mxGeometry x="30" width="150" height="30" as="geometry">
            <mxRectangle width="150" height="30" as="alternateBounds" />
          </mxGeometry>
        </mxCell>
        <mxCell id="rHNMlAd3va6fa3rfL9Q3-10" value="" style="shape=partialRectangle;collapsible=0;dropTarget=0;pointerEvents=0;fillColor=none;top=0;left=0;bottom=0;right=0;points=[[0,0.5],[1,0.5]];portConstraint=eastwest;" vertex="1" parent="rHNMlAd3va6fa3rfL9Q3-3">
          <mxGeometry y="90" width="180" height="30" as="geometry" />
        </mxCell>
        <mxCell id="rHNMlAd3va6fa3rfL9Q3-11" value="" style="shape=partialRectangle;connectable=0;fillColor=none;top=0;left=0;bottom=0;right=0;editable=1;overflow=hidden;" vertex="1" parent="rHNMlAd3va6fa3rfL9Q3-10">
          <mxGeometry width="30" height="30" as="geometry">
            <mxRectangle width="30" height="30" as="alternateBounds" />
          </mxGeometry>
        </mxCell>
        <mxCell id="rHNMlAd3va6fa3rfL9Q3-12" value="DESCRIPTION" style="shape=partialRectangle;connectable=0;fillColor=none;top=0;left=0;bottom=0;right=0;align=left;spacingLeft=6;overflow=hidden;" vertex="1" parent="rHNMlAd3va6fa3rfL9Q3-10">
          <mxGeometry x="30" width="150" height="30" as="geometry">
            <mxRectangle width="150" height="30" as="alternateBounds" />
          </mxGeometry>
        </mxCell>
        <mxCell id="rHNMlAd3va6fa3rfL9Q3-13" value="" style="shape=partialRectangle;collapsible=0;dropTarget=0;pointerEvents=0;fillColor=none;top=0;left=0;bottom=0;right=0;points=[[0,0.5],[1,0.5]];portConstraint=eastwest;" vertex="1" parent="rHNMlAd3va6fa3rfL9Q3-3">
          <mxGeometry y="120" width="180" height="30" as="geometry" />
        </mxCell>
        <mxCell id="rHNMlAd3va6fa3rfL9Q3-14" value="" style="shape=partialRectangle;connectable=0;fillColor=none;top=0;left=0;bottom=0;right=0;editable=1;overflow=hidden;" vertex="1" parent="rHNMlAd3va6fa3rfL9Q3-13">
          <mxGeometry width="30" height="30" as="geometry">
            <mxRectangle width="30" height="30" as="alternateBounds" />
          </mxGeometry>
        </mxCell>
        <mxCell id="rHNMlAd3va6fa3rfL9Q3-15" value="Row 3" style="shape=partialRectangle;connectable=0;fillColor=none;top=0;left=0;bottom=0;right=0;align=left;spacingLeft=6;overflow=hidden;" vertex="1" parent="rHNMlAd3va6fa3rfL9Q3-13">
          <mxGeometry x="30" width="150" height="30" as="geometry">
            <mxRectangle width="150" height="30" as="alternateBounds" />
          </mxGeometry>
        </mxCell>
        <mxCell id="rHNMlAd3va6fa3rfL9Q3-16" value="" style="edgeStyle=entityRelationEdgeStyle;fontSize=12;html=1;endArrow=ERoneToMany;rounded=0;strokeWidth=1;entryX=0;entryY=0.5;entryDx=0;entryDy=0;exitX=1;exitY=0.25;exitDx=0;exitDy=0;" edge="1" parent="SF6yrw-92o7nbMmaH8Ug-1" source="rHNMlAd3va6fa3rfL9Q3-3" target="rHNMlAd3va6fa3rfL9Q3-0">
          <mxGeometry width="100" height="100" relative="1" as="geometry">
            <mxPoint x="270" y="-45" as="sourcePoint" />
            <mxPoint x="390" y="90" as="targetPoint" />
          </mxGeometry>
        </mxCell>
      </root>
    </mxGraphModel>
  </diagram>
</mxfile>
